<svg width="430" height="932" viewBox="0 0 430 932" fill="none" xmlns="http://www.w3.org/2000/svg">
<g clip-path="url(#clip0_60_1227)">
<rect width="430" height="932" fill="#232323"/>
<g filter="url(#filter0_d_60_1227)">
<rect x="-62" y="674" width="294" height="258" fill="#5E2898"/>
</g>
<g filter="url(#filter1_i_60_1227)">
<rect x="232" y="747" width="294" height="73" transform="rotate(180 232 747)" fill="#101010" fill-opacity="0.5"/>
</g>
<path d="M328.693 855.17L323 848.994L370.173 797.823H343.333V789H384V833.113H375.867V803.998L328.693 855.17Z" fill="url(#paint0_linear_60_1227)"/>
<rect x="258" y="43.0898" width="20.6815" height="21.8231" fill="#303030" fill-opacity="0.5"/>
<rect x="258" y="91.1016" width="20.6815" height="21.8231" fill="#303030" fill-opacity="0.5"/>
<rect x="258" y="139.109" width="20.6815" height="21.8231" fill="#303030" fill-opacity="0.5"/>
<rect x="258" y="187.121" width="20.6815" height="21.8231" fill="#303030" fill-opacity="0.5"/>
<rect x="258" y="235.133" width="20.6815" height="21.8231" fill="#303030" fill-opacity="0.5"/>
<rect x="258" y="283.145" width="20.6815" height="21.8231" fill="#303030" fill-opacity="0.5"/>
<rect x="258" y="331.152" width="20.6815" height="21.8231" fill="#303030" fill-opacity="0.5"/>
<rect x="258" y="379.164" width="20.6815" height="21.8231" fill="#303030" fill-opacity="0.5"/>
<rect x="258" y="427.176" width="20.6815" height="21.8231" fill="#303030" fill-opacity="0.5"/>
<rect x="294.192" y="42" width="20.6815" height="21.8231" fill="#303030" fill-opacity="0.5"/>
<rect x="294.192" y="90.0117" width="20.6815" height="21.8231" fill="#303030" fill-opacity="0.5"/>
<rect x="294.192" y="138.02" width="20.6815" height="21.8231" fill="#303030" fill-opacity="0.5"/>
<rect x="294.192" y="186.031" width="20.6815" height="21.8231" fill="#303030" fill-opacity="0.5"/>
<rect x="294.192" y="234.043" width="20.6815" height="21.8231" fill="#303030" fill-opacity="0.5"/>
<rect x="294.192" y="282.055" width="20.6815" height="21.8231" fill="#303030" fill-opacity="0.5"/>
<rect x="294.192" y="330.062" width="20.6815" height="21.8231" fill="#303030" fill-opacity="0.5"/>
<rect x="294.192" y="378.074" width="20.6815" height="21.8231" fill="#303030" fill-opacity="0.5"/>
<rect x="294.192" y="426.086" width="20.6815" height="21.8231" fill="#303030" fill-opacity="0.5"/>
<rect x="330.385" y="42" width="20.6815" height="21.8231" fill="#303030" fill-opacity="0.5"/>
<rect x="330.385" y="90.0117" width="20.6815" height="21.8231" fill="#303030" fill-opacity="0.5"/>
<rect x="330.385" y="138.02" width="20.6815" height="21.8231" fill="#303030" fill-opacity="0.5"/>
<rect x="330.385" y="186.031" width="20.6815" height="21.8231" fill="#303030" fill-opacity="0.5"/>
<rect x="330.385" y="234.043" width="20.6815" height="21.8231" fill="#303030" fill-opacity="0.5"/>
<rect x="330.385" y="282.055" width="20.6815" height="21.8231" fill="#303030" fill-opacity="0.5"/>
<rect x="330.385" y="330.062" width="20.6815" height="21.8231" fill="#303030" fill-opacity="0.5"/>
<rect x="330.385" y="378.074" width="20.6815" height="21.8231" fill="#303030" fill-opacity="0.5"/>
<rect x="330.385" y="426.086" width="20.6815" height="21.8231" fill="#303030" fill-opacity="0.5"/>
<rect x="366.578" y="42" width="20.6815" height="21.8231" fill="#303030" fill-opacity="0.5"/>
<rect x="366.578" y="90.0117" width="20.6815" height="21.8231" fill="#303030" fill-opacity="0.5"/>
<rect x="366.578" y="138.02" width="20.6815" height="21.8231" fill="#303030" fill-opacity="0.5"/>
<rect x="366.578" y="186.031" width="20.6815" height="21.8231" fill="#303030" fill-opacity="0.5"/>
<rect x="366.578" y="234.043" width="20.6815" height="21.8231" fill="#303030" fill-opacity="0.5"/>
<rect x="366.578" y="282.055" width="20.6815" height="21.8231" fill="#303030" fill-opacity="0.5"/>
<rect x="366.578" y="330.062" width="20.6815" height="21.8231" fill="#303030" fill-opacity="0.5"/>
<rect x="366.578" y="378.074" width="20.6815" height="21.8231" fill="#303030" fill-opacity="0.5"/>
<rect x="366.578" y="426.086" width="20.6815" height="21.8231" fill="#303030" fill-opacity="0.5"/>
<rect x="402.771" y="42" width="20.6815" height="21.8231" fill="#303030" fill-opacity="0.5"/>
<rect x="402.771" y="90.0117" width="20.6815" height="21.8231" fill="#303030" fill-opacity="0.5"/>
<rect x="402.771" y="138.02" width="20.6815" height="21.8231" fill="#303030" fill-opacity="0.5"/>
<rect x="402.771" y="186.031" width="20.6815" height="21.8231" fill="#303030" fill-opacity="0.5"/>
<rect x="402.771" y="234.043" width="20.6815" height="21.8231" fill="#303030" fill-opacity="0.5"/>
<rect x="402.771" y="282.055" width="20.6815" height="21.8231" fill="#303030" fill-opacity="0.5"/>
<rect x="402.771" y="330.062" width="20.6815" height="21.8231" fill="#303030" fill-opacity="0.5"/>
<rect x="402.771" y="378.074" width="20.6815" height="21.8231" fill="#303030" fill-opacity="0.5"/>
<rect x="402.771" y="426.086" width="20.6815" height="21.8231" fill="#303030" fill-opacity="0.5"/>
<path d="M4.5 120.5C-28.5 100 -343 -98 -343 -98H-268.5C-268.5 -98 4.5 70 30.5 85.5C56.5 101 37.5 141 4.5 120.5Z" fill="url(#paint1_linear_60_1227)" fill-opacity="0.3"/>
<path d="M92.5 97.5C59.5 77 -255 -121 -255 -121H-180.5C-180.5 -121 92.5 47 118.5 62.5C144.5 78 125.5 118 92.5 97.5Z" fill="url(#paint2_linear_60_1227)" fill-opacity="0.3"/>
<path d="M176.5 59.5C143.5 39 -171 -159 -171 -159H-96.5C-96.5 -159 176.5 9 202.5 24.5C228.5 40 209.5 80 176.5 59.5Z" fill="url(#paint3_linear_60_1227)" fill-opacity="0.3"/>
<rect x="15" y="706.227" width="88.3114" height="85.4001" fill="#D9D9D9" fill-opacity="0.3"/>
<rect x="166.424" y="846.91" width="88.3114" height="85.4001" fill="#D9D9D9" fill-opacity="0.3"/>
<rect x="208" y="654" width="88.3114" height="85.4001" fill="#D9D9D9" fill-opacity="0.3"/>
<path d="M30.5534 770.832C30.0868 770.832 29.6668 770.752 29.2934 770.592C28.9201 770.425 28.6268 770.192 28.4134 769.892C28.2001 769.592 28.0934 769.242 28.0934 768.842H29.3134C29.3401 769.142 29.4568 769.388 29.6634 769.582C29.8768 769.775 30.1734 769.872 30.5534 769.872C30.9468 769.872 31.2534 769.778 31.4734 769.592C31.6934 769.398 31.8034 769.152 31.8034 768.852C31.8034 768.618 31.7334 768.428 31.5934 768.282C31.4601 768.135 31.2901 768.022 31.0834 767.942C30.8834 767.862 30.6034 767.775 30.2434 767.682C29.7901 767.562 29.4201 767.442 29.1334 767.322C28.8534 767.195 28.6134 767.002 28.4134 766.742C28.2134 766.482 28.1134 766.135 28.1134 765.702C28.1134 765.302 28.2134 764.952 28.4134 764.652C28.6134 764.352 28.8934 764.122 29.2534 763.962C29.6134 763.802 30.0301 763.722 30.5034 763.722C31.1768 763.722 31.7268 763.892 32.1534 764.232C32.5868 764.565 32.8268 765.025 32.8734 765.612H31.6134C31.5934 765.358 31.4734 765.142 31.2534 764.962C31.0334 764.782 30.7434 764.692 30.3834 764.692C30.0568 764.692 29.7901 764.775 29.5834 764.942C29.3768 765.108 29.2734 765.348 29.2734 765.662C29.2734 765.875 29.3368 766.052 29.4634 766.192C29.5968 766.325 29.7634 766.432 29.9634 766.512C30.1634 766.592 30.4368 766.678 30.7834 766.772C31.2434 766.898 31.6168 767.025 31.9034 767.152C32.1968 767.278 32.4434 767.475 32.6434 767.742C32.8501 768.002 32.9534 768.352 32.9534 768.792C32.9534 769.145 32.8568 769.478 32.6634 769.792C32.4768 770.105 32.2001 770.358 31.8334 770.552C31.4734 770.738 31.0468 770.832 30.5534 770.832ZM34.8786 764.522C34.6719 764.522 34.4986 764.452 34.3586 764.312C34.2186 764.172 34.1486 763.998 34.1486 763.792C34.1486 763.585 34.2186 763.412 34.3586 763.272C34.4986 763.132 34.6719 763.062 34.8786 763.062C35.0786 763.062 35.2486 763.132 35.3886 763.272C35.5286 763.412 35.5986 763.585 35.5986 763.792C35.5986 763.998 35.5286 764.172 35.3886 764.312C35.2486 764.452 35.0786 764.522 34.8786 764.522ZM35.4386 765.252V770.762H34.2986V765.252H35.4386ZM38.2653 766.182V769.232C38.2653 769.438 38.312 769.588 38.4053 769.682C38.5053 769.768 38.672 769.812 38.9053 769.812H39.6053V770.762H38.7053C38.192 770.762 37.7986 770.642 37.5253 770.402C37.252 770.162 37.1153 769.772 37.1153 769.232V766.182H36.4653V765.252H37.1153V763.882H38.2653V765.252H39.6053V766.182H38.2653ZM45.706 767.872C45.706 768.078 45.6927 768.265 45.666 768.432H41.456C41.4893 768.872 41.6527 769.225 41.946 769.492C42.2393 769.758 42.5993 769.892 43.026 769.892C43.6393 769.892 44.0727 769.635 44.326 769.122H45.556C45.3893 769.628 45.086 770.045 44.646 770.372C44.2127 770.692 43.6727 770.852 43.026 770.852C42.4993 770.852 42.026 770.735 41.606 770.502C41.1927 770.262 40.866 769.928 40.626 769.502C40.3927 769.068 40.276 768.568 40.276 768.002C40.276 767.435 40.3893 766.938 40.616 766.512C40.8493 766.078 41.1727 765.745 41.586 765.512C42.006 765.278 42.486 765.162 43.026 765.162C43.546 765.162 44.0093 765.275 44.416 765.502C44.8227 765.728 45.1393 766.048 45.366 766.462C45.5927 766.868 45.706 767.338 45.706 767.872ZM44.516 767.512C44.5093 767.092 44.3593 766.755 44.066 766.502C43.7727 766.248 43.4093 766.122 42.976 766.122C42.5827 766.122 42.246 766.248 41.966 766.502C41.686 766.748 41.5193 767.085 41.466 767.512H44.516ZM50.5655 766.072C50.7589 765.805 51.0222 765.588 51.3555 765.422C51.6955 765.248 52.0722 765.162 52.4855 765.162C52.9722 765.162 53.4122 765.278 53.8055 765.512C54.1989 765.745 54.5089 766.078 54.7355 766.512C54.9622 766.938 55.0755 767.428 55.0755 767.982C55.0755 768.535 54.9622 769.032 54.7355 769.472C54.5089 769.905 54.1955 770.245 53.7955 770.492C53.4022 770.732 52.9655 770.852 52.4855 770.852C52.0589 770.852 51.6789 770.768 51.3455 770.602C51.0189 770.435 50.7589 770.222 50.5655 769.962V770.762H49.4255V763.362H50.5655V766.072ZM53.9155 767.982C53.9155 767.602 53.8355 767.275 53.6755 767.002C53.5222 766.722 53.3155 766.512 53.0555 766.372C52.8022 766.225 52.5289 766.152 52.2355 766.152C51.9489 766.152 51.6755 766.225 51.4155 766.372C51.1622 766.518 50.9555 766.732 50.7955 767.012C50.6422 767.292 50.5655 767.622 50.5655 768.002C50.5655 768.382 50.6422 768.715 50.7955 769.002C50.9555 769.282 51.1622 769.495 51.4155 769.642C51.6755 769.788 51.9489 769.862 52.2355 769.862C52.5289 769.862 52.8022 769.788 53.0555 769.642C53.3155 769.488 53.5222 769.268 53.6755 768.982C53.8355 768.695 53.9155 768.362 53.9155 767.982ZM58.5929 770.852C58.0729 770.852 57.6029 770.735 57.1829 770.502C56.7629 770.262 56.4329 769.928 56.1929 769.502C55.9529 769.068 55.8329 768.568 55.8329 768.002C55.8329 767.442 55.9562 766.945 56.2029 766.512C56.4496 766.078 56.7862 765.745 57.2129 765.512C57.6396 765.278 58.1162 765.162 58.6429 765.162C59.1696 765.162 59.6462 765.278 60.0729 765.512C60.4996 765.745 60.8362 766.078 61.0829 766.512C61.3296 766.945 61.4529 767.442 61.4529 768.002C61.4529 768.562 61.3262 769.058 61.0729 769.492C60.8196 769.925 60.4729 770.262 60.0329 770.502C59.5996 770.735 59.1196 770.852 58.5929 770.852ZM58.5929 769.862C58.8862 769.862 59.1596 769.792 59.4129 769.652C59.6729 769.512 59.8829 769.302 60.0429 769.022C60.2029 768.742 60.2829 768.402 60.2829 768.002C60.2829 767.602 60.2062 767.265 60.0529 766.992C59.8996 766.712 59.6962 766.502 59.4429 766.362C59.1896 766.222 58.9162 766.152 58.6229 766.152C58.3296 766.152 58.0562 766.222 57.8029 766.362C57.5562 766.502 57.3596 766.712 57.2129 766.992C57.0662 767.265 56.9929 767.602 56.9929 768.002C56.9929 768.595 57.1429 769.055 57.4429 769.382C57.7496 769.702 58.1329 769.862 58.5929 769.862ZM65.3598 765.162C65.7932 765.162 66.1798 765.252 66.5198 765.432C66.8665 765.612 67.1365 765.878 67.3298 766.232C67.5232 766.585 67.6198 767.012 67.6198 767.512V770.762H66.4898V767.682C66.4898 767.188 66.3665 766.812 66.1198 766.552C65.8732 766.285 65.5365 766.152 65.1098 766.152C64.6832 766.152 64.3432 766.285 64.0898 766.552C63.8432 766.812 63.7198 767.188 63.7198 767.682V770.762H62.5798V765.252H63.7198V765.882C63.9065 765.655 64.1432 765.478 64.4298 765.352C64.7232 765.225 65.0332 765.162 65.3598 765.162ZM69.654 764.522C69.4473 764.522 69.274 764.452 69.134 764.312C68.994 764.172 68.924 763.998 68.924 763.792C68.924 763.585 68.994 763.412 69.134 763.272C69.274 763.132 69.4473 763.062 69.654 763.062C69.854 763.062 70.024 763.132 70.164 763.272C70.304 763.412 70.374 763.585 70.374 763.792C70.374 763.998 70.304 764.172 70.164 764.312C70.024 764.452 69.854 764.522 69.654 764.522ZM70.214 765.252V770.762H69.074V765.252H70.214ZM73.0407 766.182V769.232C73.0407 769.438 73.0874 769.588 73.1807 769.682C73.2807 769.768 73.4474 769.812 73.6807 769.812H74.3807V770.762H73.4807C72.9674 770.762 72.574 770.642 72.3007 770.402C72.0274 770.162 71.8907 769.772 71.8907 769.232V766.182H71.2407V765.252H71.8907V763.882H73.0407V765.252H74.3807V766.182H73.0407ZM77.8214 770.852C77.3014 770.852 76.8314 770.735 76.4114 770.502C75.9914 770.262 75.6614 769.928 75.4214 769.502C75.1814 769.068 75.0614 768.568 75.0614 768.002C75.0614 767.442 75.1847 766.945 75.4314 766.512C75.6781 766.078 76.0147 765.745 76.4414 765.512C76.8681 765.278 77.3447 765.162 77.8714 765.162C78.3981 765.162 78.8747 765.278 79.3014 765.512C79.7281 765.745 80.0647 766.078 80.3114 766.512C80.5581 766.945 80.6814 767.442 80.6814 768.002C80.6814 768.562 80.5547 769.058 80.3014 769.492C80.0481 769.925 79.7014 770.262 79.2614 770.502C78.8281 770.735 78.3481 770.852 77.8214 770.852ZM77.8214 769.862C78.1147 769.862 78.3881 769.792 78.6414 769.652C78.9014 769.512 79.1114 769.302 79.2714 769.022C79.4314 768.742 79.5114 768.402 79.5114 768.002C79.5114 767.602 79.4347 767.265 79.2814 766.992C79.1281 766.712 78.9247 766.502 78.6714 766.362C78.4181 766.222 78.1447 766.152 77.8514 766.152C77.5581 766.152 77.2847 766.222 77.0314 766.362C76.7847 766.502 76.5881 766.712 76.4414 766.992C76.2947 767.265 76.2214 767.602 76.2214 768.002C76.2214 768.595 76.3714 769.055 76.6714 769.382C76.9781 769.702 77.3614 769.862 77.8214 769.862ZM89.456 767.872C89.456 768.078 89.4427 768.265 89.416 768.432H85.206C85.2393 768.872 85.4027 769.225 85.696 769.492C85.9893 769.758 86.3493 769.892 86.776 769.892C87.3893 769.892 87.8227 769.635 88.076 769.122H89.306C89.1393 769.628 88.836 770.045 88.396 770.372C87.9627 770.692 87.4227 770.852 86.776 770.852C86.2493 770.852 85.776 770.735 85.356 770.502C84.9427 770.262 84.616 769.928 84.376 769.502C84.1427 769.068 84.026 768.568 84.026 768.002C84.026 767.435 84.1393 766.938 84.366 766.512C84.5993 766.078 84.9227 765.745 85.336 765.512C85.756 765.278 86.236 765.162 86.776 765.162C87.296 765.162 87.7593 765.275 88.166 765.502C88.5727 765.728 88.8893 766.048 89.116 766.462C89.3427 766.868 89.456 767.338 89.456 767.872ZM88.266 767.512C88.2593 767.092 88.1093 766.755 87.816 766.502C87.5227 766.248 87.1593 766.122 86.726 766.122C86.3327 766.122 85.996 766.248 85.716 766.502C85.436 766.748 85.2693 767.085 85.216 767.512H88.266ZM42.8778 777.162C43.3111 777.162 43.6978 777.252 44.0378 777.432C44.3844 777.612 44.6544 777.878 44.8478 778.232C45.0478 778.585 45.1478 779.012 45.1478 779.512V782.762H44.0178V779.682C44.0178 779.188 43.8944 778.812 43.6478 778.552C43.4011 778.285 43.0644 778.152 42.6378 778.152C42.2111 778.152 41.8711 778.285 41.6178 778.552C41.3711 778.812 41.2478 779.188 41.2478 779.682V782.762H40.1178V779.682C40.1178 779.188 39.9944 778.812 39.7478 778.552C39.5011 778.285 39.1644 778.152 38.7378 778.152C38.3111 778.152 37.9711 778.285 37.7178 778.552C37.4711 778.812 37.3478 779.188 37.3478 779.682V782.762H36.2078V777.252H37.3478V777.882C37.5344 777.655 37.7711 777.478 38.0578 777.352C38.3444 777.225 38.6511 777.162 38.9778 777.162C39.4178 777.162 39.8111 777.255 40.1578 777.442C40.5044 777.628 40.7711 777.898 40.9578 778.252C41.1244 777.918 41.3844 777.655 41.7378 777.462C42.0911 777.262 42.4711 777.162 42.8778 777.162ZM48.9884 782.852C48.4684 782.852 47.9984 782.735 47.5784 782.502C47.1584 782.262 46.8284 781.928 46.5884 781.502C46.3484 781.068 46.2284 780.568 46.2284 780.002C46.2284 779.442 46.3517 778.945 46.5984 778.512C46.8451 778.078 47.1817 777.745 47.6084 777.512C48.0351 777.278 48.5117 777.162 49.0384 777.162C49.5651 777.162 50.0417 777.278 50.4684 777.512C50.8951 777.745 51.2317 778.078 51.4784 778.512C51.7251 778.945 51.8484 779.442 51.8484 780.002C51.8484 780.562 51.7217 781.058 51.4684 781.492C51.2151 781.925 50.8684 782.262 50.4284 782.502C49.9951 782.735 49.5151 782.852 48.9884 782.852ZM48.9884 781.862C49.2817 781.862 49.5551 781.792 49.8084 781.652C50.0684 781.512 50.2784 781.302 50.4384 781.022C50.5984 780.742 50.6784 780.402 50.6784 780.002C50.6784 779.602 50.6017 779.265 50.4484 778.992C50.2951 778.712 50.0917 778.502 49.8384 778.362C49.5851 778.222 49.3117 778.152 49.0184 778.152C48.7251 778.152 48.4517 778.222 48.1984 778.362C47.9517 778.502 47.7551 778.712 47.6084 778.992C47.4617 779.265 47.3884 779.602 47.3884 780.002C47.3884 780.595 47.5384 781.055 47.8384 781.382C48.1451 781.702 48.5284 781.862 48.9884 781.862ZM52.5953 779.982C52.5953 779.428 52.7087 778.938 52.9353 778.512C53.1687 778.085 53.482 777.755 53.8753 777.522C54.2753 777.282 54.7187 777.162 55.2053 777.162C55.5653 777.162 55.9187 777.242 56.2653 777.402C56.6187 777.555 56.8987 777.762 57.1053 778.022V775.362H58.2553V782.762H57.1053V781.932C56.9187 782.198 56.6587 782.418 56.3253 782.592C55.9987 782.765 55.622 782.852 55.1953 782.852C54.7153 782.852 54.2753 782.732 53.8753 782.492C53.482 782.245 53.1687 781.905 52.9353 781.472C52.7087 781.032 52.5953 780.535 52.5953 779.982ZM57.1053 780.002C57.1053 779.622 57.0253 779.292 56.8653 779.012C56.712 778.732 56.5087 778.518 56.2553 778.372C56.002 778.225 55.7287 778.152 55.4353 778.152C55.142 778.152 54.8687 778.225 54.6153 778.372C54.362 778.512 54.1553 778.722 53.9953 779.002C53.842 779.275 53.7653 779.602 53.7653 779.982C53.7653 780.362 53.842 780.695 53.9953 780.982C54.1553 781.268 54.362 781.488 54.6153 781.642C54.8753 781.788 55.1487 781.862 55.4353 781.862C55.7287 781.862 56.002 781.788 56.2553 781.642C56.5087 781.495 56.712 781.282 56.8653 781.002C57.0253 780.715 57.1053 780.382 57.1053 780.002ZM64.8027 779.872C64.8027 780.078 64.7894 780.265 64.7627 780.432H60.5527C60.586 780.872 60.7494 781.225 61.0427 781.492C61.336 781.758 61.696 781.892 62.1227 781.892C62.736 781.892 63.1694 781.635 63.4227 781.122H64.6527C64.486 781.628 64.1827 782.045 63.7427 782.372C63.3094 782.692 62.7694 782.852 62.1227 782.852C61.596 782.852 61.1227 782.735 60.7027 782.502C60.2894 782.262 59.9627 781.928 59.7227 781.502C59.4894 781.068 59.3727 780.568 59.3727 780.002C59.3727 779.435 59.486 778.938 59.7127 778.512C59.946 778.078 60.2694 777.745 60.6827 777.512C61.1027 777.278 61.5827 777.162 62.1227 777.162C62.6427 777.162 63.106 777.275 63.5127 777.502C63.9194 777.728 64.236 778.048 64.4627 778.462C64.6894 778.868 64.8027 779.338 64.8027 779.872ZM63.6127 779.512C63.606 779.092 63.456 778.755 63.1627 778.502C62.8694 778.248 62.506 778.122 62.0727 778.122C61.6794 778.122 61.3427 778.248 61.0627 778.502C60.7827 778.748 60.616 779.085 60.5627 779.512H63.6127ZM67.0646 778.052C67.2312 777.772 67.4512 777.555 67.7246 777.402C68.0046 777.242 68.3346 777.162 68.7146 777.162V778.342H68.4246C67.9779 778.342 67.6379 778.455 67.4046 778.682C67.1779 778.908 67.0646 779.302 67.0646 779.862V782.762H65.9246V777.252H67.0646V778.052ZM72.5425 777.162C72.9758 777.162 73.3625 777.252 73.7025 777.432C74.0491 777.612 74.3191 777.878 74.5125 778.232C74.7058 778.585 74.8025 779.012 74.8025 779.512V782.762H73.6725V779.682C73.6725 779.188 73.5491 778.812 73.3025 778.552C73.0558 778.285 72.7191 778.152 72.2925 778.152C71.8658 778.152 71.5258 778.285 71.2725 778.552C71.0258 778.812 70.9025 779.188 70.9025 779.682V782.762H69.7625V777.252H70.9025V777.882C71.0891 777.655 71.3258 777.478 71.6125 777.352C71.9058 777.225 72.2158 777.162 72.5425 777.162ZM78.6466 782.852C78.1266 782.852 77.6566 782.735 77.2366 782.502C76.8166 782.262 76.4866 781.928 76.2466 781.502C76.0066 781.068 75.8866 780.568 75.8866 780.002C75.8866 779.442 76.0099 778.945 76.2566 778.512C76.5033 778.078 76.8399 777.745 77.2666 777.512C77.6933 777.278 78.1699 777.162 78.6966 777.162C79.2233 777.162 79.6999 777.278 80.1266 777.512C80.5533 777.745 80.8899 778.078 81.1366 778.512C81.3833 778.945 81.5066 779.442 81.5066 780.002C81.5066 780.562 81.3799 781.058 81.1266 781.492C80.8733 781.925 80.5266 782.262 80.0866 782.502C79.6533 782.735 79.1733 782.852 78.6466 782.852ZM78.6466 781.862C78.9399 781.862 79.2133 781.792 79.4666 781.652C79.7266 781.512 79.9366 781.302 80.0966 781.022C80.2566 780.742 80.3366 780.402 80.3366 780.002C80.3366 779.602 80.2599 779.265 80.1066 778.992C79.9533 778.712 79.7499 778.502 79.4966 778.362C79.2433 778.222 78.9699 778.152 78.6766 778.152C78.3833 778.152 78.1099 778.222 77.8566 778.362C77.6099 778.502 77.4133 778.712 77.2666 778.992C77.1199 779.265 77.0466 779.602 77.0466 780.002C77.0466 780.595 77.1966 781.055 77.4966 781.382C77.8033 781.702 78.1866 781.862 78.6466 781.862Z" fill="white"/>
<path d="M183.314 899.24C183.314 898.56 183.471 897.95 183.784 897.41C184.104 896.87 184.534 896.45 185.074 896.15C185.621 895.844 186.217 895.69 186.864 895.69C187.604 895.69 188.261 895.874 188.834 896.24C189.414 896.6 189.834 897.114 190.094 897.78H188.724C188.544 897.414 188.294 897.14 187.974 896.96C187.654 896.78 187.284 896.69 186.864 896.69C186.404 896.69 185.994 896.794 185.634 897C185.274 897.207 184.991 897.504 184.784 897.89C184.584 898.277 184.484 898.727 184.484 899.24C184.484 899.754 184.584 900.204 184.784 900.59C184.991 900.977 185.274 901.277 185.634 901.49C185.994 901.697 186.404 901.8 186.864 901.8C187.284 901.8 187.654 901.71 187.974 901.53C188.294 901.35 188.544 901.077 188.724 900.71H190.094C189.834 901.377 189.414 901.89 188.834 902.25C188.261 902.61 187.604 902.79 186.864 902.79C186.211 902.79 185.614 902.64 185.074 902.34C184.534 902.034 184.104 901.61 183.784 901.07C183.471 900.53 183.314 899.92 183.314 899.24ZM193.818 902.82C193.298 902.82 192.828 902.704 192.408 902.47C191.988 902.23 191.658 901.897 191.418 901.47C191.178 901.037 191.058 900.537 191.058 899.97C191.058 899.41 191.182 898.914 191.428 898.48C191.675 898.047 192.012 897.714 192.438 897.48C192.865 897.247 193.342 897.13 193.868 897.13C194.395 897.13 194.872 897.247 195.298 897.48C195.725 897.714 196.062 898.047 196.308 898.48C196.555 898.914 196.678 899.41 196.678 899.97C196.678 900.53 196.552 901.027 196.298 901.46C196.045 901.894 195.698 902.23 195.258 902.47C194.825 902.704 194.345 902.82 193.818 902.82ZM193.818 901.83C194.112 901.83 194.385 901.76 194.638 901.62C194.898 901.48 195.108 901.27 195.268 900.99C195.428 900.71 195.508 900.37 195.508 899.97C195.508 899.57 195.432 899.234 195.278 898.96C195.125 898.68 194.922 898.47 194.668 898.33C194.415 898.19 194.142 898.12 193.848 898.12C193.555 898.12 193.282 898.19 193.028 898.33C192.782 898.47 192.585 898.68 192.438 898.96C192.292 899.234 192.218 899.57 192.218 899.97C192.218 900.564 192.368 901.024 192.668 901.35C192.975 901.67 193.358 901.83 193.818 901.83ZM204.475 897.13C204.909 897.13 205.295 897.22 205.635 897.4C205.982 897.58 206.252 897.847 206.445 898.2C206.645 898.554 206.745 898.98 206.745 899.48V902.73H205.615V899.65C205.615 899.157 205.492 898.78 205.245 898.52C204.999 898.254 204.662 898.12 204.235 898.12C203.809 898.12 203.469 898.254 203.215 898.52C202.969 898.78 202.845 899.157 202.845 899.65V902.73H201.715V899.65C201.715 899.157 201.592 898.78 201.345 898.52C201.099 898.254 200.762 898.12 200.335 898.12C199.909 898.12 199.569 898.254 199.315 898.52C199.069 898.78 198.945 899.157 198.945 899.65V902.73H197.805V897.22H198.945V897.85C199.132 897.624 199.369 897.447 199.655 897.32C199.942 897.194 200.249 897.13 200.575 897.13C201.015 897.13 201.409 897.224 201.755 897.41C202.102 897.597 202.369 897.867 202.555 898.22C202.722 897.887 202.982 897.624 203.335 897.43C203.689 897.23 204.069 897.13 204.475 897.13ZM209.336 898.03C209.529 897.777 209.793 897.564 210.126 897.39C210.459 897.217 210.836 897.13 211.256 897.13C211.736 897.13 212.173 897.25 212.566 897.49C212.966 897.724 213.279 898.054 213.506 898.48C213.733 898.907 213.846 899.397 213.846 899.95C213.846 900.504 213.733 901 213.506 901.44C213.279 901.874 212.966 902.214 212.566 902.46C212.173 902.7 211.736 902.82 211.256 902.82C210.836 902.82 210.463 902.737 210.136 902.57C209.809 902.397 209.543 902.184 209.336 901.93V905.35H208.196V897.22H209.336V898.03ZM212.686 899.95C212.686 899.57 212.606 899.244 212.446 898.97C212.293 898.69 212.086 898.48 211.826 898.34C211.573 898.194 211.299 898.12 211.006 898.12C210.719 898.12 210.446 898.194 210.186 898.34C209.933 898.487 209.726 898.7 209.566 898.98C209.413 899.26 209.336 899.59 209.336 899.97C209.336 900.35 209.413 900.684 209.566 900.97C209.726 901.25 209.933 901.464 210.186 901.61C210.446 901.757 210.719 901.83 211.006 901.83C211.299 901.83 211.573 901.757 211.826 901.61C212.086 901.457 212.293 901.237 212.446 900.95C212.606 900.664 212.686 900.33 212.686 899.95ZM214.593 899.95C214.593 899.397 214.707 898.907 214.933 898.48C215.167 898.054 215.48 897.724 215.873 897.49C216.273 897.25 216.713 897.13 217.193 897.13C217.627 897.13 218.003 897.217 218.323 897.39C218.65 897.557 218.91 897.767 219.103 898.02V897.22H220.253V902.73H219.103V901.91C218.91 902.17 218.647 902.387 218.313 902.56C217.98 902.734 217.6 902.82 217.173 902.82C216.7 902.82 216.267 902.7 215.873 902.46C215.48 902.214 215.167 901.874 214.933 901.44C214.707 901 214.593 900.504 214.593 899.95ZM219.103 899.97C219.103 899.59 219.023 899.26 218.863 898.98C218.71 898.7 218.507 898.487 218.253 898.34C218 898.194 217.727 898.12 217.433 898.12C217.14 898.12 216.867 898.194 216.613 898.34C216.36 898.48 216.153 898.69 215.993 898.97C215.84 899.244 215.763 899.57 215.763 899.95C215.763 900.33 215.84 900.664 215.993 900.95C216.153 901.237 216.36 901.457 216.613 901.61C216.873 901.757 217.147 901.83 217.433 901.83C217.727 901.83 218 901.757 218.253 901.61C218.507 901.464 218.71 901.25 218.863 900.97C219.023 900.684 219.103 900.35 219.103 899.97ZM223.081 898.15V901.2C223.081 901.407 223.127 901.557 223.221 901.65C223.321 901.737 223.487 901.78 223.721 901.78H224.421V902.73H223.521C223.007 902.73 222.614 902.61 222.341 902.37C222.067 902.13 221.931 901.74 221.931 901.2V898.15H221.281V897.22H221.931V895.85H223.081V897.22H224.421V898.15H223.081ZM226.611 897.22V902.73H225.471V897.22H226.611ZM227.071 895.74L224.861 896.83V895.99L227.071 894.77V895.74ZM230.238 901.71L231.798 897.22H233.008L230.908 902.73H229.548L227.458 897.22H228.678L230.238 901.71ZM238.92 899.84C238.92 900.047 238.906 900.234 238.88 900.4H234.67C234.703 900.84 234.866 901.194 235.16 901.46C235.453 901.727 235.813 901.86 236.24 901.86C236.853 901.86 237.286 901.604 237.54 901.09H238.77C238.603 901.597 238.3 902.014 237.86 902.34C237.426 902.66 236.886 902.82 236.24 902.82C235.713 902.82 235.24 902.704 234.82 902.47C234.406 902.23 234.08 901.897 233.84 901.47C233.606 901.037 233.49 900.537 233.49 899.97C233.49 899.404 233.603 898.907 233.83 898.48C234.063 898.047 234.386 897.714 234.8 897.48C235.22 897.247 235.7 897.13 236.24 897.13C236.76 897.13 237.223 897.244 237.63 897.47C238.036 897.697 238.353 898.017 238.58 898.43C238.806 898.837 238.92 899.307 238.92 899.84ZM237.73 899.48C237.723 899.06 237.573 898.724 237.28 898.47C236.986 898.217 236.623 898.09 236.19 898.09C235.796 898.09 235.46 898.217 235.18 898.47C234.9 898.717 234.733 899.054 234.68 899.48H237.73ZM241.182 895.33V902.73H240.042V895.33H241.182ZM177.142 911.97C177.142 911.404 177.255 910.907 177.482 910.48C177.715 910.047 178.035 909.714 178.442 909.48C178.849 909.247 179.315 909.13 179.842 909.13C180.509 909.13 181.059 909.29 181.492 909.61C181.932 909.924 182.229 910.374 182.382 910.96H181.152C181.052 910.687 180.892 910.474 180.672 910.32C180.452 910.167 180.175 910.09 179.842 910.09C179.375 910.09 179.002 910.257 178.722 910.59C178.449 910.917 178.312 911.377 178.312 911.97C178.312 912.564 178.449 913.027 178.722 913.36C179.002 913.694 179.375 913.86 179.842 913.86C180.502 913.86 180.939 913.57 181.152 912.99H182.382C182.222 913.55 181.922 913.997 181.482 914.33C181.042 914.657 180.495 914.82 179.842 914.82C179.315 914.82 178.849 914.704 178.442 914.47C178.035 914.23 177.715 913.897 177.482 913.47C177.255 913.037 177.142 912.537 177.142 911.97ZM185.908 914.82C185.388 914.82 184.918 914.704 184.498 914.47C184.078 914.23 183.748 913.897 183.508 913.47C183.268 913.037 183.148 912.537 183.148 911.97C183.148 911.41 183.272 910.914 183.518 910.48C183.765 910.047 184.102 909.714 184.528 909.48C184.955 909.247 185.432 909.13 185.958 909.13C186.485 909.13 186.962 909.247 187.388 909.48C187.815 909.714 188.152 910.047 188.398 910.48C188.645 910.914 188.768 911.41 188.768 911.97C188.768 912.53 188.642 913.027 188.388 913.46C188.135 913.894 187.788 914.23 187.348 914.47C186.915 914.704 186.435 914.82 185.908 914.82ZM185.908 913.83C186.202 913.83 186.475 913.76 186.728 913.62C186.988 913.48 187.198 913.27 187.358 912.99C187.518 912.71 187.598 912.37 187.598 911.97C187.598 911.57 187.522 911.234 187.368 910.96C187.215 910.68 187.012 910.47 186.758 910.33C186.505 910.19 186.232 910.12 185.938 910.12C185.645 910.12 185.372 910.19 185.118 910.33C184.872 910.47 184.675 910.68 184.528 910.96C184.382 911.234 184.308 911.57 184.308 911.97C184.308 912.564 184.458 913.024 184.758 913.35C185.065 913.67 185.448 913.83 185.908 913.83ZM196.565 909.13C196.998 909.13 197.385 909.22 197.725 909.4C198.072 909.58 198.342 909.847 198.535 910.2C198.735 910.554 198.835 910.98 198.835 911.48V914.73H197.705V911.65C197.705 911.157 197.582 910.78 197.335 910.52C197.088 910.254 196.752 910.12 196.325 910.12C195.898 910.12 195.558 910.254 195.305 910.52C195.058 910.78 194.935 911.157 194.935 911.65V914.73H193.805V911.65C193.805 911.157 193.682 910.78 193.435 910.52C193.188 910.254 192.852 910.12 192.425 910.12C191.998 910.12 191.658 910.254 191.405 910.52C191.158 910.78 191.035 911.157 191.035 911.65V914.73H189.895V909.22H191.035V909.85C191.222 909.624 191.458 909.447 191.745 909.32C192.032 909.194 192.338 909.13 192.665 909.13C193.105 909.13 193.498 909.224 193.845 909.41C194.192 909.597 194.458 909.867 194.645 910.22C194.812 909.887 195.072 909.624 195.425 909.43C195.778 909.23 196.158 909.13 196.565 909.13ZM202.503 911.95C202.503 911.397 202.617 910.907 202.843 910.48C203.077 910.054 203.39 909.724 203.783 909.49C204.183 909.25 204.627 909.13 205.113 909.13C205.54 909.13 205.917 909.217 206.243 909.39C206.577 909.564 206.833 909.774 207.013 910.02V909.22H208.163V917.35H207.013V913.93C206.833 914.177 206.573 914.387 206.233 914.56C205.893 914.734 205.507 914.82 205.073 914.82C204.6 914.82 204.167 914.7 203.773 914.46C203.387 914.214 203.077 913.874 202.843 913.44C202.617 913 202.503 912.504 202.503 911.95ZM207.013 911.97C207.013 911.59 206.933 911.26 206.773 910.98C206.62 910.7 206.417 910.487 206.163 910.34C205.91 910.194 205.637 910.12 205.343 910.12C205.05 910.12 204.777 910.194 204.523 910.34C204.27 910.48 204.063 910.69 203.903 910.97C203.75 911.244 203.673 911.57 203.673 911.95C203.673 912.33 203.75 912.664 203.903 912.95C204.063 913.237 204.27 913.457 204.523 913.61C204.783 913.757 205.057 913.83 205.343 913.83C205.637 913.83 205.91 913.757 206.163 913.61C206.417 913.464 206.62 913.25 206.773 912.97C206.933 912.684 207.013 912.35 207.013 911.97ZM214.651 909.22V914.73H213.511V914.08C213.331 914.307 213.094 914.487 212.801 914.62C212.514 914.747 212.207 914.81 211.881 914.81C211.447 914.81 211.057 914.72 210.711 914.54C210.371 914.36 210.101 914.094 209.901 913.74C209.707 913.387 209.611 912.96 209.611 912.46V909.22H210.741V912.29C210.741 912.784 210.864 913.164 211.111 913.43C211.357 913.69 211.694 913.82 212.121 913.82C212.547 913.82 212.884 913.69 213.131 913.43C213.384 913.164 213.511 912.784 213.511 912.29V909.22H214.651ZM215.775 911.95C215.775 911.397 215.888 910.907 216.115 910.48C216.348 910.054 216.662 909.724 217.055 909.49C217.455 909.25 217.895 909.13 218.375 909.13C218.808 909.13 219.185 909.217 219.505 909.39C219.832 909.557 220.092 909.767 220.285 910.02V909.22H221.435V914.73H220.285V913.91C220.092 914.17 219.828 914.387 219.495 914.56C219.162 914.734 218.782 914.82 218.355 914.82C217.882 914.82 217.448 914.7 217.055 914.46C216.662 914.214 216.348 913.874 216.115 913.44C215.888 913 215.775 912.504 215.775 911.95ZM220.285 911.97C220.285 911.59 220.205 911.26 220.045 910.98C219.892 910.7 219.688 910.487 219.435 910.34C219.182 910.194 218.908 910.12 218.615 910.12C218.322 910.12 218.048 910.194 217.795 910.34C217.542 910.48 217.335 910.69 217.175 910.97C217.022 911.244 216.945 911.57 216.945 911.95C216.945 912.33 217.022 912.664 217.175 912.95C217.335 913.237 217.542 913.457 217.795 913.61C218.055 913.757 218.328 913.83 218.615 913.83C218.908 913.83 219.182 913.757 219.435 913.61C219.688 913.464 219.892 913.25 220.045 912.97C220.205 912.684 220.285 912.35 220.285 911.97ZM224.072 907.33V914.73H222.932V907.33H224.072ZM225.189 911.95C225.189 911.397 225.302 910.907 225.529 910.48C225.762 910.054 226.076 909.724 226.469 909.49C226.869 909.25 227.312 909.13 227.799 909.13C228.226 909.13 228.602 909.217 228.929 909.39C229.262 909.564 229.519 909.774 229.699 910.02V909.22H230.849V917.35H229.699V913.93C229.519 914.177 229.259 914.387 228.919 914.56C228.579 914.734 228.192 914.82 227.759 914.82C227.286 914.82 226.852 914.7 226.459 914.46C226.072 914.214 225.762 913.874 225.529 913.44C225.302 913 225.189 912.504 225.189 911.95ZM229.699 911.97C229.699 911.59 229.619 911.26 229.459 910.98C229.306 910.7 229.102 910.487 228.849 910.34C228.596 910.194 228.322 910.12 228.029 910.12C227.736 910.12 227.462 910.194 227.209 910.34C226.956 910.48 226.749 910.69 226.589 910.97C226.436 911.244 226.359 911.57 226.359 911.95C226.359 912.33 226.436 912.664 226.589 912.95C226.749 913.237 226.956 913.457 227.209 913.61C227.469 913.757 227.742 913.83 228.029 913.83C228.322 913.83 228.596 913.757 228.849 913.61C229.102 913.464 229.306 913.25 229.459 912.97C229.619 912.684 229.699 912.35 229.699 911.97ZM237.336 909.22V914.73H236.196V914.08C236.016 914.307 235.78 914.487 235.486 914.62C235.2 914.747 234.893 914.81 234.566 914.81C234.133 914.81 233.743 914.72 233.396 914.54C233.056 914.36 232.786 914.094 232.586 913.74C232.393 913.387 232.296 912.96 232.296 912.46V909.22H233.426V912.29C233.426 912.784 233.55 913.164 233.796 913.43C234.043 913.69 234.38 913.82 234.806 913.82C235.233 913.82 235.57 913.69 235.816 913.43C236.07 913.164 236.196 912.784 236.196 912.29V909.22H237.336ZM243.89 911.84C243.89 912.047 243.877 912.234 243.85 912.4H239.64C239.674 912.84 239.837 913.194 240.13 913.46C240.424 913.727 240.784 913.86 241.21 913.86C241.824 913.86 242.257 913.604 242.51 913.09H243.74C243.574 913.597 243.27 914.014 242.83 914.34C242.397 914.66 241.857 914.82 241.21 914.82C240.684 914.82 240.21 914.704 239.79 914.47C239.377 914.23 239.05 913.897 238.81 913.47C238.577 913.037 238.46 912.537 238.46 911.97C238.46 911.404 238.574 910.907 238.8 910.48C239.034 910.047 239.357 909.714 239.77 909.48C240.19 909.247 240.67 909.13 241.21 909.13C241.73 909.13 242.194 909.244 242.6 909.47C243.007 909.697 243.324 910.017 243.55 910.43C243.777 910.837 243.89 911.307 243.89 911.84ZM242.7 911.48C242.694 911.06 242.544 910.724 242.25 910.47C241.957 910.217 241.594 910.09 241.16 910.09C240.767 910.09 240.43 910.217 240.15 910.47C239.87 910.717 239.704 911.054 239.65 911.48H242.7ZM246.152 910.02C246.319 909.74 246.539 909.524 246.812 909.37C247.092 909.21 247.422 909.13 247.802 909.13V910.31H247.512C247.066 910.31 246.726 910.424 246.492 910.65C246.266 910.877 246.152 911.27 246.152 911.83V914.73H245.012V909.22H246.152V910.02ZM186.913 923.95C186.913 923.397 187.026 922.907 187.253 922.48C187.486 922.054 187.799 921.724 188.193 921.49C188.593 921.25 189.036 921.13 189.523 921.13C189.883 921.13 190.236 921.21 190.583 921.37C190.936 921.524 191.216 921.73 191.423 921.99V919.33H192.573V926.73H191.423V925.9C191.236 926.167 190.976 926.387 190.643 926.56C190.316 926.734 189.939 926.82 189.513 926.82C189.033 926.82 188.593 926.7 188.193 926.46C187.799 926.214 187.486 925.874 187.253 925.44C187.026 925 186.913 924.504 186.913 923.95ZM191.423 923.97C191.423 923.59 191.343 923.26 191.183 922.98C191.029 922.7 190.826 922.487 190.573 922.34C190.319 922.194 190.046 922.12 189.753 922.12C189.459 922.12 189.186 922.194 188.933 922.34C188.679 922.48 188.473 922.69 188.313 922.97C188.159 923.244 188.083 923.57 188.083 923.95C188.083 924.33 188.159 924.664 188.313 924.95C188.473 925.237 188.679 925.457 188.933 925.61C189.193 925.757 189.466 925.83 189.753 925.83C190.046 925.83 190.319 925.757 190.573 925.61C190.826 925.464 191.029 925.25 191.183 924.97C191.343 924.684 191.423 924.35 191.423 923.97ZM194.65 920.49C194.443 920.49 194.27 920.42 194.13 920.28C193.99 920.14 193.92 919.967 193.92 919.76C193.92 919.554 193.99 919.38 194.13 919.24C194.27 919.1 194.443 919.03 194.65 919.03C194.85 919.03 195.02 919.1 195.16 919.24C195.3 919.38 195.37 919.554 195.37 919.76C195.37 919.967 195.3 920.14 195.16 920.28C195.02 920.42 194.85 920.49 194.65 920.49ZM195.21 921.22V926.73H194.07V921.22H195.21ZM198.707 926.82C198.273 926.82 197.883 926.744 197.537 926.59C197.197 926.43 196.927 926.217 196.727 925.95C196.527 925.677 196.42 925.374 196.407 925.04H197.587C197.607 925.274 197.717 925.47 197.917 925.63C198.123 925.784 198.38 925.86 198.687 925.86C199.007 925.86 199.253 925.8 199.427 925.68C199.607 925.554 199.697 925.394 199.697 925.2C199.697 924.994 199.597 924.84 199.397 924.74C199.203 924.64 198.893 924.53 198.467 924.41C198.053 924.297 197.717 924.187 197.457 924.08C197.197 923.974 196.97 923.81 196.777 923.59C196.59 923.37 196.497 923.08 196.497 922.72C196.497 922.427 196.583 922.16 196.757 921.92C196.93 921.674 197.177 921.48 197.497 921.34C197.823 921.2 198.197 921.13 198.617 921.13C199.243 921.13 199.747 921.29 200.127 921.61C200.513 921.924 200.72 922.354 200.747 922.9H199.607C199.587 922.654 199.487 922.457 199.307 922.31C199.127 922.164 198.883 922.09 198.577 922.09C198.277 922.09 198.047 922.147 197.887 922.26C197.727 922.374 197.647 922.524 197.647 922.71C197.647 922.857 197.7 922.98 197.807 923.08C197.913 923.18 198.043 923.26 198.197 923.32C198.35 923.374 198.577 923.444 198.877 923.53C199.277 923.637 199.603 923.747 199.857 923.86C200.117 923.967 200.34 924.127 200.527 924.34C200.713 924.554 200.81 924.837 200.817 925.19C200.817 925.504 200.73 925.784 200.557 926.03C200.383 926.277 200.137 926.47 199.817 926.61C199.503 926.75 199.133 926.82 198.707 926.82ZM203.188 922.03C203.382 921.777 203.645 921.564 203.978 921.39C204.312 921.217 204.688 921.13 205.108 921.13C205.588 921.13 206.025 921.25 206.418 921.49C206.818 921.724 207.132 922.054 207.358 922.48C207.585 922.907 207.698 923.397 207.698 923.95C207.698 924.504 207.585 925 207.358 925.44C207.132 925.874 206.818 926.214 206.418 926.46C206.025 926.7 205.588 926.82 205.108 926.82C204.688 926.82 204.315 926.737 203.988 926.57C203.662 926.397 203.395 926.184 203.188 925.93V929.35H202.048V921.22H203.188V922.03ZM206.538 923.95C206.538 923.57 206.458 923.244 206.298 922.97C206.145 922.69 205.938 922.48 205.678 922.34C205.425 922.194 205.152 922.12 204.858 922.12C204.572 922.12 204.298 922.194 204.038 922.34C203.785 922.487 203.578 922.7 203.418 922.98C203.265 923.26 203.188 923.59 203.188 923.97C203.188 924.35 203.265 924.684 203.418 924.97C203.578 925.25 203.785 925.464 204.038 925.61C204.298 925.757 204.572 925.83 204.858 925.83C205.152 925.83 205.425 925.757 205.678 925.61C205.938 925.457 206.145 925.237 206.298 924.95C206.458 924.664 206.538 924.33 206.538 923.95ZM211.216 926.82C210.696 926.82 210.226 926.704 209.806 926.47C209.386 926.23 209.056 925.897 208.816 925.47C208.576 925.037 208.456 924.537 208.456 923.97C208.456 923.41 208.579 922.914 208.826 922.48C209.072 922.047 209.409 921.714 209.836 921.48C210.262 921.247 210.739 921.13 211.266 921.13C211.792 921.13 212.269 921.247 212.696 921.48C213.122 921.714 213.459 922.047 213.706 922.48C213.952 922.914 214.076 923.41 214.076 923.97C214.076 924.53 213.949 925.027 213.696 925.46C213.442 925.894 213.096 926.23 212.656 926.47C212.222 926.704 211.742 926.82 211.216 926.82ZM211.216 925.83C211.509 925.83 211.782 925.76 212.036 925.62C212.296 925.48 212.506 925.27 212.666 924.99C212.826 924.71 212.906 924.37 212.906 923.97C212.906 923.57 212.829 923.234 212.676 922.96C212.522 922.68 212.319 922.47 212.066 922.33C211.812 922.19 211.539 922.12 211.246 922.12C210.952 922.12 210.679 922.19 210.426 922.33C210.179 922.47 209.982 922.68 209.836 922.96C209.689 923.234 209.616 923.57 209.616 923.97C209.616 924.564 209.766 925.024 210.066 925.35C210.372 925.67 210.756 925.83 211.216 925.83ZM217.203 926.82C216.769 926.82 216.379 926.744 216.033 926.59C215.693 926.43 215.423 926.217 215.223 925.95C215.023 925.677 214.916 925.374 214.903 925.04H216.083C216.103 925.274 216.213 925.47 216.413 925.63C216.619 925.784 216.876 925.86 217.183 925.86C217.503 925.86 217.749 925.8 217.923 925.68C218.103 925.554 218.193 925.394 218.193 925.2C218.193 924.994 218.093 924.84 217.893 924.74C217.699 924.64 217.389 924.53 216.963 924.41C216.549 924.297 216.213 924.187 215.953 924.08C215.693 923.974 215.466 923.81 215.273 923.59C215.086 923.37 214.993 923.08 214.993 922.72C214.993 922.427 215.079 922.16 215.253 921.92C215.426 921.674 215.673 921.48 215.993 921.34C216.319 921.2 216.693 921.13 217.113 921.13C217.739 921.13 218.243 921.29 218.623 921.61C219.009 921.924 219.216 922.354 219.243 922.9H218.103C218.083 922.654 217.983 922.457 217.803 922.31C217.623 922.164 217.379 922.09 217.073 922.09C216.773 922.09 216.543 922.147 216.383 922.26C216.223 922.374 216.143 922.524 216.143 922.71C216.143 922.857 216.196 922.98 216.303 923.08C216.409 923.18 216.539 923.26 216.693 923.32C216.846 923.374 217.073 923.444 217.373 923.53C217.773 923.637 218.099 923.747 218.353 923.86C218.613 923.967 218.836 924.127 219.023 924.34C219.209 924.554 219.306 924.837 219.313 925.19C219.313 925.504 219.226 925.784 219.053 926.03C218.879 926.277 218.633 926.47 218.313 926.61C217.999 926.75 217.629 926.82 217.203 926.82ZM221.125 920.49C220.918 920.49 220.745 920.42 220.605 920.28C220.465 920.14 220.395 919.967 220.395 919.76C220.395 919.554 220.465 919.38 220.605 919.24C220.745 919.1 220.918 919.03 221.125 919.03C221.325 919.03 221.495 919.1 221.635 919.24C221.775 919.38 221.845 919.554 221.845 919.76C221.845 919.967 221.775 920.14 221.635 920.28C221.495 920.42 221.325 920.49 221.125 920.49ZM221.685 921.22V926.73H220.545V921.22H221.685ZM224.511 922.15V925.2C224.511 925.407 224.558 925.557 224.651 925.65C224.751 925.737 224.918 925.78 225.151 925.78H225.851V926.73H224.951C224.438 926.73 224.045 926.61 223.771 926.37C223.498 926.13 223.361 925.74 223.361 925.2V922.15H222.711V921.22H223.361V919.85H224.511V921.22H225.851V922.15H224.511ZM227.482 920.49C227.275 920.49 227.102 920.42 226.962 920.28C226.822 920.14 226.752 919.967 226.752 919.76C226.752 919.554 226.822 919.38 226.962 919.24C227.102 919.1 227.275 919.03 227.482 919.03C227.682 919.03 227.852 919.1 227.992 919.24C228.132 919.38 228.202 919.554 228.202 919.76C228.202 919.967 228.132 920.14 227.992 920.28C227.852 920.42 227.682 920.49 227.482 920.49ZM228.042 921.22V926.73H226.902V921.22H228.042ZM231.669 925.71L233.229 921.22H234.439L232.339 926.73H230.979L228.889 921.22H230.109L231.669 925.71ZM237.69 926.82C237.17 926.82 236.7 926.704 236.28 926.47C235.86 926.23 235.53 925.897 235.29 925.47C235.05 925.037 234.93 924.537 234.93 923.97C234.93 923.41 235.054 922.914 235.3 922.48C235.547 922.047 235.884 921.714 236.31 921.48C236.737 921.247 237.214 921.13 237.74 921.13C238.267 921.13 238.744 921.247 239.17 921.48C239.597 921.714 239.934 922.047 240.18 922.48C240.427 922.914 240.55 923.41 240.55 923.97C240.55 924.53 240.424 925.027 240.17 925.46C239.917 925.894 239.57 926.23 239.13 926.47C238.697 926.704 238.217 926.82 237.69 926.82ZM237.69 925.83C237.984 925.83 238.257 925.76 238.51 925.62C238.77 925.48 238.98 925.27 239.14 924.99C239.3 924.71 239.38 924.37 239.38 923.97C239.38 923.57 239.304 923.234 239.15 922.96C238.997 922.68 238.794 922.47 238.54 922.33C238.287 922.19 238.014 922.12 237.72 922.12C237.427 922.12 237.154 922.19 236.9 922.33C236.654 922.47 236.457 922.68 236.31 922.96C236.164 923.234 236.09 923.57 236.09 923.97C236.09 924.564 236.24 925.024 236.54 925.35C236.847 925.67 237.23 925.83 237.69 925.83Z" fill="white"/>
<path d="M222.561 706.212V708.252H224.961V709.182H222.561V711.312H225.261V712.242H221.421V705.282H225.261V706.212H222.561ZM229.445 706.642C229.878 706.642 230.265 706.732 230.605 706.912C230.951 707.092 231.221 707.359 231.415 707.712C231.608 708.066 231.705 708.492 231.705 708.992V712.242H230.575V709.162C230.575 708.669 230.451 708.292 230.205 708.032C229.958 707.766 229.621 707.632 229.195 707.632C228.768 707.632 228.428 707.766 228.175 708.032C227.928 708.292 227.805 708.669 227.805 709.162V712.242H226.665V706.732H227.805V707.362C227.991 707.136 228.228 706.959 228.515 706.832C228.808 706.706 229.118 706.642 229.445 706.642ZM232.779 709.482C232.779 708.916 232.892 708.419 233.119 707.992C233.352 707.559 233.672 707.226 234.079 706.992C234.485 706.759 234.952 706.642 235.479 706.642C236.145 706.642 236.695 706.802 237.129 707.122C237.569 707.436 237.865 707.886 238.019 708.472H236.789C236.689 708.199 236.529 707.986 236.309 707.832C236.089 707.679 235.812 707.602 235.479 707.602C235.012 707.602 234.639 707.769 234.359 708.102C234.085 708.429 233.949 708.889 233.949 709.482C233.949 710.076 234.085 710.539 234.359 710.872C234.639 711.206 235.012 711.372 235.479 711.372C236.139 711.372 236.575 711.082 236.789 710.502H238.019C237.859 711.062 237.559 711.509 237.119 711.842C236.679 712.169 236.132 712.332 235.479 712.332C234.952 712.332 234.485 712.216 234.079 711.982C233.672 711.742 233.352 711.409 233.119 710.982C232.892 710.549 232.779 710.049 232.779 709.482ZM238.775 709.462C238.775 708.909 238.888 708.419 239.115 707.992C239.348 707.566 239.662 707.236 240.055 707.002C240.455 706.762 240.895 706.642 241.375 706.642C241.808 706.642 242.185 706.729 242.505 706.902C242.832 707.069 243.092 707.279 243.285 707.532V706.732H244.435V712.242H243.285V711.422C243.092 711.682 242.828 711.899 242.495 712.072C242.162 712.246 241.782 712.332 241.355 712.332C240.882 712.332 240.448 712.212 240.055 711.972C239.662 711.726 239.348 711.386 239.115 710.952C238.888 710.512 238.775 710.016 238.775 709.462ZM243.285 709.482C243.285 709.102 243.205 708.772 243.045 708.492C242.892 708.212 242.688 707.999 242.435 707.852C242.182 707.706 241.908 707.632 241.615 707.632C241.322 707.632 241.048 707.706 240.795 707.852C240.542 707.992 240.335 708.202 240.175 708.482C240.022 708.756 239.945 709.082 239.945 709.462C239.945 709.842 240.022 710.176 240.175 710.462C240.335 710.749 240.542 710.969 240.795 711.122C241.055 711.269 241.328 711.342 241.615 711.342C241.908 711.342 242.182 711.269 242.435 711.122C242.688 710.976 242.892 710.762 243.045 710.482C243.205 710.196 243.285 709.862 243.285 709.482ZM248.712 706.642C249.146 706.642 249.532 706.732 249.872 706.912C250.219 707.092 250.489 707.359 250.682 707.712C250.876 708.066 250.972 708.492 250.972 708.992V712.242H249.842V709.162C249.842 708.669 249.719 708.292 249.472 708.032C249.226 707.766 248.889 707.632 248.462 707.632C248.036 707.632 247.696 707.766 247.442 708.032C247.196 708.292 247.072 708.669 247.072 709.162V712.242H245.932V706.732H247.072V707.362C247.259 707.136 247.496 706.959 247.782 706.832C248.076 706.706 248.386 706.642 248.712 706.642ZM253.756 707.662V710.712C253.756 710.919 253.803 711.069 253.896 711.162C253.996 711.249 254.163 711.292 254.396 711.292H255.096V712.242H254.196C253.683 712.242 253.29 712.122 253.016 711.882C252.743 711.642 252.606 711.252 252.606 710.712V707.662H251.956V706.732H252.606V705.362H253.756V706.732H255.096V707.662H253.756ZM261.197 709.352C261.197 709.559 261.184 709.746 261.157 709.912H256.947C256.98 710.352 257.144 710.706 257.437 710.972C257.73 711.239 258.09 711.372 258.517 711.372C259.13 711.372 259.564 711.116 259.817 710.602H261.047C260.88 711.109 260.577 711.526 260.137 711.852C259.704 712.172 259.164 712.332 258.517 712.332C257.99 712.332 257.517 712.216 257.097 711.982C256.684 711.742 256.357 711.409 256.117 710.982C255.884 710.549 255.767 710.049 255.767 709.482C255.767 708.916 255.88 708.419 256.107 707.992C256.34 707.559 256.664 707.226 257.077 706.992C257.497 706.759 257.977 706.642 258.517 706.642C259.037 706.642 259.5 706.756 259.907 706.982C260.314 707.209 260.63 707.529 260.857 707.942C261.084 708.349 261.197 708.819 261.197 709.352ZM260.007 708.992C260 708.572 259.85 708.236 259.557 707.982C259.264 707.729 258.9 707.602 258.467 707.602C258.074 707.602 257.737 707.729 257.457 707.982C257.177 708.229 257.01 708.566 256.957 708.992H260.007ZM266.917 712.332C266.483 712.332 266.093 712.256 265.747 712.102C265.407 711.942 265.137 711.729 264.937 711.462C264.737 711.189 264.63 710.886 264.617 710.552H265.797C265.817 710.786 265.927 710.982 266.127 711.142C266.333 711.296 266.59 711.372 266.897 711.372C267.217 711.372 267.463 711.312 267.637 711.192C267.817 711.066 267.907 710.906 267.907 710.712C267.907 710.506 267.807 710.352 267.607 710.252C267.413 710.152 267.103 710.042 266.677 709.922C266.263 709.809 265.927 709.699 265.667 709.592C265.407 709.486 265.18 709.322 264.987 709.102C264.8 708.882 264.707 708.592 264.707 708.232C264.707 707.939 264.793 707.672 264.967 707.432C265.14 707.186 265.387 706.992 265.707 706.852C266.033 706.712 266.407 706.642 266.827 706.642C267.453 706.642 267.957 706.802 268.337 707.122C268.723 707.436 268.93 707.866 268.957 708.412H267.817C267.797 708.166 267.697 707.969 267.517 707.822C267.337 707.676 267.093 707.602 266.787 707.602C266.487 707.602 266.257 707.659 266.097 707.772C265.937 707.886 265.857 708.036 265.857 708.222C265.857 708.369 265.91 708.492 266.017 708.592C266.123 708.692 266.253 708.772 266.407 708.832C266.56 708.886 266.787 708.956 267.087 709.042C267.487 709.149 267.813 709.259 268.067 709.372C268.327 709.479 268.55 709.639 268.737 709.852C268.923 710.066 269.02 710.349 269.027 710.702C269.027 711.016 268.94 711.296 268.767 711.542C268.593 711.789 268.347 711.982 268.027 712.122C267.713 712.262 267.343 712.332 266.917 712.332ZM275.308 709.352C275.308 709.559 275.295 709.746 275.268 709.912H271.058C271.092 710.352 271.255 710.706 271.548 710.972C271.842 711.239 272.202 711.372 272.628 711.372C273.242 711.372 273.675 711.116 273.928 710.602H275.158C274.992 711.109 274.688 711.526 274.248 711.852C273.815 712.172 273.275 712.332 272.628 712.332C272.102 712.332 271.628 712.216 271.208 711.982C270.795 711.742 270.468 711.409 270.228 710.982C269.995 710.549 269.878 710.049 269.878 709.482C269.878 708.916 269.992 708.419 270.218 707.992C270.452 707.559 270.775 707.226 271.188 706.992C271.608 706.759 272.088 706.642 272.628 706.642C273.148 706.642 273.612 706.756 274.018 706.982C274.425 707.209 274.742 707.529 274.968 707.942C275.195 708.349 275.308 708.819 275.308 709.352ZM274.118 708.992C274.112 708.572 273.962 708.236 273.668 707.982C273.375 707.729 273.012 707.602 272.578 707.602C272.185 707.602 271.848 707.729 271.568 707.982C271.288 708.229 271.122 708.566 271.068 708.992H274.118ZM281.42 706.732V712.242H280.28V711.592C280.1 711.819 279.864 711.999 279.57 712.132C279.284 712.259 278.977 712.322 278.65 712.322C278.217 712.322 277.827 712.232 277.48 712.052C277.14 711.872 276.87 711.606 276.67 711.252C276.477 710.899 276.38 710.472 276.38 709.972V706.732H277.51V709.802C277.51 710.296 277.634 710.676 277.88 710.942C278.127 711.202 278.464 711.332 278.89 711.332C279.317 711.332 279.654 711.202 279.9 710.942C280.154 710.676 280.28 710.296 280.28 709.802V706.732H281.42ZM284.924 712.332C284.491 712.332 284.101 712.256 283.754 712.102C283.414 711.942 283.144 711.729 282.944 711.462C282.744 711.189 282.638 710.886 282.624 710.552H283.804C283.824 710.786 283.934 710.982 284.134 711.142C284.341 711.296 284.598 711.372 284.904 711.372C285.224 711.372 285.471 711.312 285.644 711.192C285.824 711.066 285.914 710.906 285.914 710.712C285.914 710.506 285.814 710.352 285.614 710.252C285.421 710.152 285.111 710.042 284.684 709.922C284.271 709.809 283.934 709.699 283.674 709.592C283.414 709.486 283.188 709.322 282.994 709.102C282.808 708.882 282.714 708.592 282.714 708.232C282.714 707.939 282.801 707.672 282.974 707.432C283.148 707.186 283.394 706.992 283.714 706.852C284.041 706.712 284.414 706.642 284.834 706.642C285.461 706.642 285.964 706.802 286.344 707.122C286.731 707.436 286.938 707.866 286.964 708.412H285.824C285.804 708.166 285.704 707.969 285.524 707.822C285.344 707.676 285.101 707.602 284.794 707.602C284.494 707.602 284.264 707.659 284.104 707.772C283.944 707.886 283.864 708.036 283.864 708.222C283.864 708.369 283.918 708.492 284.024 708.592C284.131 708.692 284.261 708.772 284.414 708.832C284.568 708.886 284.794 708.956 285.094 709.042C285.494 709.149 285.821 709.259 286.074 709.372C286.334 709.479 286.558 709.639 286.744 709.852C286.931 710.066 287.028 710.349 287.034 710.702C287.034 711.016 286.948 711.296 286.774 711.542C286.601 711.789 286.354 711.982 286.034 712.122C285.721 712.262 285.351 712.332 284.924 712.332ZM234.878 721.482C234.878 720.916 234.992 720.419 235.218 719.992C235.452 719.559 235.772 719.226 236.178 718.992C236.585 718.759 237.052 718.642 237.578 718.642C238.245 718.642 238.795 718.802 239.228 719.122C239.668 719.436 239.965 719.886 240.118 720.472H238.888C238.788 720.199 238.628 719.986 238.408 719.832C238.188 719.679 237.912 719.602 237.578 719.602C237.112 719.602 236.738 719.769 236.458 720.102C236.185 720.429 236.048 720.889 236.048 721.482C236.048 722.076 236.185 722.539 236.458 722.872C236.738 723.206 237.112 723.372 237.578 723.372C238.238 723.372 238.675 723.082 238.888 722.502H240.118C239.958 723.062 239.658 723.509 239.218 723.842C238.778 724.169 238.232 724.332 237.578 724.332C237.052 724.332 236.585 724.216 236.178 723.982C235.772 723.742 235.452 723.409 235.218 722.982C234.992 722.549 234.878 722.049 234.878 721.482ZM242.395 716.842V724.242H241.255V716.842H242.395ZM244.471 718.002C244.265 718.002 244.091 717.932 243.951 717.792C243.811 717.652 243.741 717.479 243.741 717.272C243.741 717.066 243.811 716.892 243.951 716.752C244.091 716.612 244.265 716.542 244.471 716.542C244.671 716.542 244.841 716.612 244.981 716.752C245.121 716.892 245.191 717.066 245.191 717.272C245.191 717.479 245.121 717.652 244.981 717.792C244.841 717.932 244.671 718.002 244.471 718.002ZM245.031 718.732V724.242H243.891V718.732H245.031ZM251.578 721.352C251.578 721.559 251.565 721.746 251.538 721.912H247.328C247.361 722.352 247.525 722.706 247.818 722.972C248.111 723.239 248.471 723.372 248.898 723.372C249.511 723.372 249.945 723.116 250.198 722.602H251.428C251.261 723.109 250.958 723.526 250.518 723.852C250.085 724.172 249.545 724.332 248.898 724.332C248.371 724.332 247.898 724.216 247.478 723.982C247.065 723.742 246.738 723.409 246.498 722.982C246.265 722.549 246.148 722.049 246.148 721.482C246.148 720.916 246.261 720.419 246.488 719.992C246.721 719.559 247.045 719.226 247.458 718.992C247.878 718.759 248.358 718.642 248.898 718.642C249.418 718.642 249.881 718.756 250.288 718.982C250.695 719.209 251.011 719.529 251.238 719.942C251.465 720.349 251.578 720.819 251.578 721.352ZM250.388 720.992C250.381 720.572 250.231 720.236 249.938 719.982C249.645 719.729 249.281 719.602 248.848 719.602C248.455 719.602 248.118 719.729 247.838 719.982C247.558 720.229 247.391 720.566 247.338 720.992H250.388ZM255.48 718.642C255.913 718.642 256.3 718.732 256.64 718.912C256.986 719.092 257.256 719.359 257.45 719.712C257.643 720.066 257.74 720.492 257.74 720.992V724.242H256.61V721.162C256.61 720.669 256.486 720.292 256.24 720.032C255.993 719.766 255.656 719.632 255.23 719.632C254.803 719.632 254.463 719.766 254.21 720.032C253.963 720.292 253.84 720.669 253.84 721.162V724.242H252.7V718.732H253.84V719.362C254.026 719.136 254.263 718.959 254.55 718.832C254.843 718.706 255.153 718.642 255.48 718.642ZM260.524 719.662V722.712C260.524 722.919 260.571 723.069 260.664 723.162C260.764 723.249 260.931 723.292 261.164 723.292H261.864V724.242H260.964C260.451 724.242 260.057 724.122 259.784 723.882C259.511 723.642 259.374 723.252 259.374 722.712V719.662H258.724V718.732H259.374V717.362H260.524V718.732H261.864V719.662H260.524ZM267.965 721.352C267.965 721.559 267.951 721.746 267.925 721.912H263.715C263.748 722.352 263.911 722.706 264.205 722.972C264.498 723.239 264.858 723.372 265.285 723.372C265.898 723.372 266.331 723.116 266.585 722.602H267.815C267.648 723.109 267.345 723.526 266.905 723.852C266.471 724.172 265.931 724.332 265.285 724.332C264.758 724.332 264.285 724.216 263.865 723.982C263.451 723.742 263.125 723.409 262.885 722.982C262.651 722.549 262.535 722.049 262.535 721.482C262.535 720.916 262.648 720.419 262.875 719.992C263.108 719.559 263.431 719.226 263.845 718.992C264.265 718.759 264.745 718.642 265.285 718.642C265.805 718.642 266.268 718.756 266.675 718.982C267.081 719.209 267.398 719.529 267.625 719.942C267.851 720.349 267.965 720.819 267.965 721.352ZM266.775 720.992C266.768 720.572 266.618 720.236 266.325 719.982C266.031 719.729 265.668 719.602 265.235 719.602C264.841 719.602 264.505 719.729 264.225 719.982C263.945 720.229 263.778 720.566 263.725 720.992H266.775ZM271.087 724.332C270.653 724.332 270.263 724.256 269.917 724.102C269.577 723.942 269.307 723.729 269.107 723.462C268.907 723.189 268.8 722.886 268.787 722.552H269.967C269.987 722.786 270.097 722.982 270.297 723.142C270.503 723.296 270.76 723.372 271.067 723.372C271.387 723.372 271.633 723.312 271.807 723.192C271.987 723.066 272.077 722.906 272.077 722.712C272.077 722.506 271.977 722.352 271.777 722.252C271.583 722.152 271.273 722.042 270.847 721.922C270.433 721.809 270.097 721.699 269.837 721.592C269.577 721.486 269.35 721.322 269.157 721.102C268.97 720.882 268.877 720.592 268.877 720.232C268.877 719.939 268.963 719.672 269.137 719.432C269.31 719.186 269.557 718.992 269.877 718.852C270.203 718.712 270.577 718.642 270.997 718.642C271.623 718.642 272.127 718.802 272.507 719.122C272.893 719.436 273.1 719.866 273.127 720.412H271.987C271.967 720.166 271.867 719.969 271.687 719.822C271.507 719.676 271.263 719.602 270.957 719.602C270.657 719.602 270.427 719.659 270.267 719.772C270.107 719.886 270.027 720.036 270.027 720.222C270.027 720.369 270.08 720.492 270.187 720.592C270.293 720.692 270.423 720.772 270.577 720.832C270.73 720.886 270.957 720.956 271.257 721.042C271.657 721.149 271.983 721.259 272.237 721.372C272.497 721.479 272.72 721.639 272.907 721.852C273.093 722.066 273.19 722.349 273.197 722.702C273.197 723.016 273.11 723.296 272.937 723.542C272.763 723.789 272.517 723.982 272.197 724.122C271.883 724.262 271.513 724.332 271.087 724.332Z" fill="white"/>
<path d="M58.6712 745.42L46.9448 731.348L50.4627 724.312H66.8796L70.3975 731.348L58.6712 745.42ZM55.8862 730.176H61.4562L59.6972 726.658H57.6451L55.8862 730.176ZM57.4985 740.348V732.521H50.9904L57.4985 740.348ZM59.8438 740.348L66.3519 732.521H59.8438V740.348ZM64.0653 730.176H67.1728L65.4138 726.658H62.3063L64.0653 730.176ZM50.1696 730.176H53.277L55.036 726.658H51.9285L50.1696 730.176Z" fill="#BCBCBC"/>
<path d="M294.365 656.418H288.057L294.365 661.27V656.418Z" fill="#515151"/>
<path d="M252.794 848.84H246.486L252.794 853.692V848.84Z" fill="#515151"/>
<path d="M101.855 707.684H95.5474L101.855 712.536V707.684Z" fill="#515151"/>
<path d="M245.198 687.481C244.575 687.481 244.042 687.259 243.599 686.816C243.155 686.373 242.934 685.839 242.934 685.217V669.366C242.934 668.743 243.155 668.21 243.599 667.767C244.042 667.323 244.575 667.102 245.198 667.102H261.049C261.671 667.102 262.205 667.323 262.648 667.767C263.091 668.21 263.313 668.743 263.313 669.366V685.217C263.313 685.839 263.091 686.373 262.648 686.816C262.205 687.259 261.671 687.481 261.049 687.481H245.198ZM246.33 677.942L250.859 673.414L255.388 677.942L259.917 673.414L261.049 674.546V669.366H245.198V676.81L246.33 677.942ZM245.198 685.217H261.049V677.744L259.917 676.612L255.388 681.141L250.859 676.612L246.33 681.141L245.198 680.009V685.217ZM245.198 685.217V677.744V680.009V669.366V685.217Z" fill="#BCBCBC"/>
<path d="M207.358 882.574C206.768 882.574 206.264 882.364 205.844 881.944C205.424 881.525 205.215 881.02 205.215 880.431V876.145H207.358V877.216H218.073V864.358H207.358V865.429H205.215V861.143C205.215 860.554 205.424 860.049 205.844 859.63C206.264 859.21 206.768 859 207.358 859H218.073C218.663 859 219.167 859.21 219.587 859.63C220.006 860.049 220.216 860.554 220.216 861.143V880.431C220.216 881.02 220.006 881.525 219.587 881.944C219.167 882.364 218.663 882.574 218.073 882.574H207.358ZM207.358 879.359V880.431H218.073V879.359H207.358ZM203.5 876.145L202 874.645L208.001 868.644H204.143V866.501H211.644V874.002H209.501V870.144L203.5 876.145ZM207.358 862.215H218.073V861.143H207.358V862.215Z" fill="#BCBCBC"/>
</g>
<defs>
<filter id="filter0_d_60_1227" x="-62" y="674" width="308" height="266" filterUnits="userSpaceOnUse" color-interpolation-filters="sRGB">
<feFlood flood-opacity="0" result="BackgroundImageFix"/>
<feColorMatrix in="SourceAlpha" type="matrix" values="0 0 0 0 0 0 0 0 0 0 0 0 0 0 0 0 0 0 127 0" result="hardAlpha"/>
<feOffset dx="10" dy="4"/>
<feGaussianBlur stdDeviation="2"/>
<feComposite in2="hardAlpha" operator="out"/>
<feColorMatrix type="matrix" values="0 0 0 0 0 0 0 0 0 0 0 0 0 0 0 0 0 0 0.15 0"/>
<feBlend mode="normal" in2="BackgroundImageFix" result="effect1_dropShadow_60_1227"/>
<feBlend mode="normal" in="SourceGraphic" in2="effect1_dropShadow_60_1227" result="shape"/>
</filter>
<filter id="filter1_i_60_1227" x="-62" y="663" width="305" height="84" filterUnits="userSpaceOnUse" color-interpolation-filters="sRGB">
<feFlood flood-opacity="0" result="BackgroundImageFix"/>
<feBlend mode="normal" in="SourceGraphic" in2="BackgroundImageFix" result="shape"/>
<feColorMatrix in="SourceAlpha" type="matrix" values="0 0 0 0 0 0 0 0 0 0 0 0 0 0 0 0 0 0 127 0" result="hardAlpha"/>
<feOffset dx="11" dy="-11"/>
<feGaussianBlur stdDeviation="16"/>
<feComposite in2="hardAlpha" operator="arithmetic" k2="-1" k3="1"/>
<feColorMatrix type="matrix" values="0 0 0 0 0 0 0 0 0 0 0 0 0 0 0 0 0 0 0.25 0"/>
<feBlend mode="normal" in2="shape" result="effect1_innerShadow_60_1227"/>
</filter>
<linearGradient id="paint0_linear_60_1227" x1="353.5" y1="789" x2="353.5" y2="855.17" gradientUnits="userSpaceOnUse">
<stop stop-color="#5E2898"/>
<stop offset="1" stop-color="#DE32F4"/>
</linearGradient>
<linearGradient id="paint1_linear_60_1227" x1="-365.5" y1="-131" x2="29" y2="113" gradientUnits="userSpaceOnUse">
<stop stop-color="#D9D9D9" stop-opacity="0"/>
<stop offset="0.229296" stop-color="#5E2898" stop-opacity="0.23"/>
<stop offset="0.614583" stop-color="#5E2898"/>
<stop offset="1" stop-color="#DE32F4"/>
</linearGradient>
<linearGradient id="paint2_linear_60_1227" x1="-277.5" y1="-154" x2="117" y2="90" gradientUnits="userSpaceOnUse">
<stop stop-color="#D9D9D9" stop-opacity="0"/>
<stop offset="0.229296" stop-color="#5E2898" stop-opacity="0.23"/>
<stop offset="0.614583" stop-color="#5E2898"/>
<stop offset="1" stop-color="#DE32F4"/>
</linearGradient>
<linearGradient id="paint3_linear_60_1227" x1="-193.5" y1="-192" x2="201" y2="52" gradientUnits="userSpaceOnUse">
<stop stop-color="#D9D9D9" stop-opacity="0"/>
<stop offset="0.229296" stop-color="#5E2898" stop-opacity="0.23"/>
<stop offset="0.614583" stop-color="#5E2898"/>
<stop offset="1" stop-color="#DE32F4"/>
</linearGradient>
<clipPath id="clip0_60_1227">
<rect width="430" height="932" fill="white"/>
</clipPath>
</defs>
</svg>
