<svg width="1826" height="685" viewBox="0 0 1826 685" fill="none" xmlns="http://www.w3.org/2000/svg">
<path d="M230.5 218.5C197.5 198 -117 0 -117 0H-42.5C-42.5 0 230.5 168 256.5 183.5C282.5 199 263.5 239 230.5 218.5Z" fill="url(#paint0_linear_94_1200)" fill-opacity="0.3"/>
<path d="M177.5 258.5C144.5 238 -170 40 -170 40H-95.5C-95.5 40 177.5 208 203.5 223.5C229.5 239 210.5 279 177.5 258.5Z" fill="url(#paint1_linear_94_1200)" fill-opacity="0.3"/>
<path d="M109.5 294.5C76.5 274 -238 76 -238 76H-163.5C-163.5 76 109.5 244 135.5 259.5C161.5 275 142.5 315 109.5 294.5Z" fill="url(#paint2_linear_94_1200)" fill-opacity="0.3"/>
<path d="M37.5 322.5C4.5 302 -310 104 -310 104H-235.5C-235.5 104 37.5 272 63.5 287.5C89.5 303 70.5 343 37.5 322.5Z" fill="url(#paint3_linear_94_1200)" fill-opacity="0.3"/>
<rect x="-12.1479" y="142" width="20.6815" height="21.8231" fill="#303030" fill-opacity="0.5"/>
<rect x="-12.1479" y="190.01" width="20.6815" height="21.8231" fill="#303030" fill-opacity="0.5"/>
<rect x="-12.1479" y="238.021" width="20.6815" height="21.8231" fill="#303030" fill-opacity="0.5"/>
<rect x="-12.1479" y="286.031" width="20.6815" height="21.8231" fill="#303030" fill-opacity="0.5"/>
<rect x="-12.1479" y="334.043" width="20.6815" height="21.8231" fill="#303030" fill-opacity="0.5"/>
<rect x="-12.1479" y="382.053" width="20.6815" height="21.8231" fill="#303030" fill-opacity="0.5"/>
<rect x="-12.1479" y="430.064" width="20.6815" height="21.8231" fill="#303030" fill-opacity="0.5"/>
<rect x="-12.1479" y="478.074" width="20.6815" height="21.8231" fill="#303030" fill-opacity="0.5"/>
<rect x="-12.1479" y="526.086" width="20.6815" height="21.8231" fill="#303030" fill-opacity="0.5"/>
<rect x="24.0444" y="142" width="20.6815" height="21.8231" fill="#303030" fill-opacity="0.5"/>
<rect x="24.0444" y="190.01" width="20.6815" height="21.8231" fill="#303030" fill-opacity="0.5"/>
<rect x="24.0444" y="238.021" width="20.6815" height="21.8231" fill="#303030" fill-opacity="0.5"/>
<rect x="24.0444" y="286.031" width="20.6815" height="21.8231" fill="#303030" fill-opacity="0.5"/>
<rect x="24.0444" y="334.043" width="20.6815" height="21.8231" fill="#303030" fill-opacity="0.5"/>
<rect x="24.0444" y="382.053" width="20.6815" height="21.8231" fill="#303030" fill-opacity="0.5"/>
<rect x="24.0444" y="430.064" width="20.6815" height="21.8231" fill="#303030" fill-opacity="0.5"/>
<rect x="24.0444" y="478.074" width="20.6815" height="21.8231" fill="#303030" fill-opacity="0.5"/>
<rect x="24.0444" y="526.086" width="20.6815" height="21.8231" fill="#303030" fill-opacity="0.5"/>
<rect x="60.2373" y="142" width="20.6815" height="21.8231" fill="#303030" fill-opacity="0.5"/>
<rect x="60.2373" y="190.01" width="20.6815" height="21.8231" fill="#303030" fill-opacity="0.5"/>
<rect x="60.2373" y="238.021" width="20.6815" height="21.8231" fill="#303030" fill-opacity="0.5"/>
<rect x="60.2373" y="286.031" width="20.6815" height="21.8231" fill="#303030" fill-opacity="0.5"/>
<rect x="60.2373" y="334.043" width="20.6815" height="21.8231" fill="#303030" fill-opacity="0.5"/>
<rect x="60.2373" y="382.053" width="20.6815" height="21.8231" fill="#303030" fill-opacity="0.5"/>
<rect x="60.2373" y="430.064" width="20.6815" height="21.8231" fill="#303030" fill-opacity="0.5"/>
<rect x="60.2373" y="478.074" width="20.6815" height="21.8231" fill="#303030" fill-opacity="0.5"/>
<rect x="60.2373" y="526.086" width="20.6815" height="21.8231" fill="#303030" fill-opacity="0.5"/>
<rect x="96.4297" y="142" width="20.6815" height="21.8231" fill="#303030" fill-opacity="0.5"/>
<rect x="96.4297" y="190.01" width="20.6815" height="21.8231" fill="#303030" fill-opacity="0.5"/>
<rect x="96.4297" y="238.021" width="20.6815" height="21.8231" fill="#303030" fill-opacity="0.5"/>
<rect x="96.4297" y="286.031" width="20.6815" height="21.8231" fill="#303030" fill-opacity="0.5"/>
<rect x="96.4297" y="334.043" width="20.6815" height="21.8231" fill="#303030" fill-opacity="0.5"/>
<rect x="96.4297" y="382.053" width="20.6815" height="21.8231" fill="#303030" fill-opacity="0.5"/>
<rect x="96.4297" y="430.064" width="20.6815" height="21.8231" fill="#303030" fill-opacity="0.5"/>
<rect x="96.4297" y="478.074" width="20.6815" height="21.8231" fill="#303030" fill-opacity="0.5"/>
<rect x="96.4297" y="526.086" width="20.6815" height="21.8231" fill="#303030" fill-opacity="0.5"/>
<rect x="132.622" y="142" width="20.6815" height="21.8231" fill="#303030" fill-opacity="0.5"/>
<rect x="132.622" y="190.01" width="20.6815" height="21.8231" fill="#303030" fill-opacity="0.5"/>
<rect x="132.622" y="238.021" width="20.6815" height="21.8231" fill="#303030" fill-opacity="0.5"/>
<rect x="132.622" y="286.031" width="20.6815" height="21.8231" fill="#303030" fill-opacity="0.5"/>
<rect x="132.622" y="334.043" width="20.6815" height="21.8231" fill="#303030" fill-opacity="0.5"/>
<rect x="132.622" y="382.053" width="20.6815" height="21.8231" fill="#303030" fill-opacity="0.5"/>
<rect x="132.622" y="430.064" width="20.6815" height="21.8231" fill="#303030" fill-opacity="0.5"/>
<rect x="132.622" y="478.074" width="20.6815" height="21.8231" fill="#303030" fill-opacity="0.5"/>
<rect x="132.622" y="526.086" width="20.6815" height="21.8231" fill="#303030" fill-opacity="0.5"/>
<rect x="168.815" y="142" width="20.6815" height="21.8231" fill="#303030" fill-opacity="0.5"/>
<rect x="168.815" y="190.01" width="20.6815" height="21.8231" fill="#303030" fill-opacity="0.5"/>
<rect x="168.815" y="238.021" width="20.6815" height="21.8231" fill="#303030" fill-opacity="0.5"/>
<rect x="168.815" y="286.031" width="20.6815" height="21.8231" fill="#303030" fill-opacity="0.5"/>
<rect x="168.815" y="334.043" width="20.6815" height="21.8231" fill="#303030" fill-opacity="0.5"/>
<rect x="168.815" y="382.053" width="20.6815" height="21.8231" fill="#303030" fill-opacity="0.5"/>
<rect x="168.815" y="430.064" width="20.6815" height="21.8231" fill="#303030" fill-opacity="0.5"/>
<rect x="168.815" y="478.074" width="20.6815" height="21.8231" fill="#303030" fill-opacity="0.5"/>
<rect x="168.815" y="526.086" width="20.6815" height="21.8231" fill="#303030" fill-opacity="0.5"/>
<rect x="205.007" y="142" width="20.6815" height="21.8231" fill="#303030" fill-opacity="0.5"/>
<rect x="205.007" y="190.01" width="20.6815" height="21.8231" fill="#303030" fill-opacity="0.5"/>
<rect x="205.007" y="238.021" width="20.6815" height="21.8231" fill="#303030" fill-opacity="0.5"/>
<rect x="205.007" y="286.031" width="20.6815" height="21.8231" fill="#303030" fill-opacity="0.5"/>
<rect x="205.007" y="334.043" width="20.6815" height="21.8231" fill="#303030" fill-opacity="0.5"/>
<rect x="205.007" y="382.053" width="20.6815" height="21.8231" fill="#303030" fill-opacity="0.5"/>
<rect x="205.007" y="430.064" width="20.6815" height="21.8231" fill="#303030" fill-opacity="0.5"/>
<rect x="205.007" y="478.074" width="20.6815" height="21.8231" fill="#303030" fill-opacity="0.5"/>
<rect x="205.007" y="526.086" width="20.6815" height="21.8231" fill="#303030" fill-opacity="0.5"/>
<rect x="241.2" y="142" width="20.6815" height="21.8231" fill="#303030" fill-opacity="0.5"/>
<rect x="241.2" y="190.01" width="20.6815" height="21.8231" fill="#303030" fill-opacity="0.5"/>
<rect x="241.2" y="238.021" width="20.6815" height="21.8231" fill="#303030" fill-opacity="0.5"/>
<rect x="241.2" y="286.031" width="20.6815" height="21.8231" fill="#303030" fill-opacity="0.5"/>
<rect x="241.2" y="334.043" width="20.6815" height="21.8231" fill="#303030" fill-opacity="0.5"/>
<rect x="241.2" y="382.053" width="20.6815" height="21.8231" fill="#303030" fill-opacity="0.5"/>
<rect x="241.2" y="430.064" width="20.6815" height="21.8231" fill="#303030" fill-opacity="0.5"/>
<rect x="241.2" y="478.074" width="20.6815" height="21.8231" fill="#303030" fill-opacity="0.5"/>
<rect x="241.2" y="526.086" width="20.6815" height="21.8231" fill="#303030" fill-opacity="0.5"/>
<rect x="277.393" y="142" width="20.6815" height="21.8231" fill="#303030" fill-opacity="0.5"/>
<rect x="277.393" y="190.01" width="20.6815" height="21.8231" fill="#303030" fill-opacity="0.5"/>
<rect x="277.393" y="238.021" width="20.6815" height="21.8231" fill="#303030" fill-opacity="0.5"/>
<rect x="277.393" y="286.031" width="20.6815" height="21.8231" fill="#303030" fill-opacity="0.5"/>
<rect x="277.393" y="334.043" width="20.6815" height="21.8231" fill="#303030" fill-opacity="0.5"/>
<rect x="277.393" y="382.053" width="20.6815" height="21.8231" fill="#303030" fill-opacity="0.5"/>
<rect x="277.393" y="430.064" width="20.6815" height="21.8231" fill="#303030" fill-opacity="0.5"/>
<rect x="277.393" y="478.074" width="20.6815" height="21.8231" fill="#303030" fill-opacity="0.5"/>
<rect x="277.393" y="526.086" width="20.6815" height="21.8231" fill="#303030" fill-opacity="0.5"/>
<rect x="313.585" y="142" width="20.6815" height="21.8231" fill="#303030" fill-opacity="0.5"/>
<rect x="313.585" y="190.01" width="20.6815" height="21.8231" fill="#303030" fill-opacity="0.5"/>
<rect x="313.585" y="238.021" width="20.6815" height="21.8231" fill="#303030" fill-opacity="0.5"/>
<rect x="313.585" y="286.031" width="20.6815" height="21.8231" fill="#303030" fill-opacity="0.5"/>
<rect x="313.585" y="334.043" width="20.6815" height="21.8231" fill="#303030" fill-opacity="0.5"/>
<rect x="313.585" y="382.053" width="20.6815" height="21.8231" fill="#303030" fill-opacity="0.5"/>
<rect x="313.585" y="430.064" width="20.6815" height="21.8231" fill="#303030" fill-opacity="0.5"/>
<rect x="313.585" y="478.074" width="20.6815" height="21.8231" fill="#303030" fill-opacity="0.5"/>
<rect x="313.585" y="526.086" width="20.6815" height="21.8231" fill="#303030" fill-opacity="0.5"/>
<rect x="349.778" y="142" width="20.6815" height="21.8231" fill="#303030" fill-opacity="0.5"/>
<rect x="349.778" y="190.01" width="20.6815" height="21.8231" fill="#303030" fill-opacity="0.5"/>
<rect x="349.778" y="238.021" width="20.6815" height="21.8231" fill="#303030" fill-opacity="0.5"/>
<rect x="349.778" y="286.031" width="20.6815" height="21.8231" fill="#303030" fill-opacity="0.5"/>
<rect x="349.778" y="334.043" width="20.6815" height="21.8231" fill="#303030" fill-opacity="0.5"/>
<rect x="349.778" y="382.053" width="20.6815" height="21.8231" fill="#303030" fill-opacity="0.5"/>
<rect x="349.778" y="430.064" width="20.6815" height="21.8231" fill="#303030" fill-opacity="0.5"/>
<rect x="349.778" y="478.074" width="20.6815" height="21.8231" fill="#303030" fill-opacity="0.5"/>
<rect x="349.778" y="526.086" width="20.6815" height="21.8231" fill="#303030" fill-opacity="0.5"/>
<rect x="385.97" y="142" width="20.6815" height="21.8231" fill="#303030" fill-opacity="0.5"/>
<rect x="385.97" y="190.01" width="20.6815" height="21.8231" fill="#303030" fill-opacity="0.5"/>
<rect x="385.97" y="238.021" width="20.6815" height="21.8231" fill="#303030" fill-opacity="0.5"/>
<rect x="385.97" y="286.031" width="20.6815" height="21.8231" fill="#303030" fill-opacity="0.5"/>
<rect x="385.97" y="334.043" width="20.6815" height="21.8231" fill="#303030" fill-opacity="0.5"/>
<rect x="385.97" y="382.053" width="20.6815" height="21.8231" fill="#303030" fill-opacity="0.5"/>
<rect x="385.97" y="430.064" width="20.6815" height="21.8231" fill="#303030" fill-opacity="0.5"/>
<rect x="385.97" y="478.074" width="20.6815" height="21.8231" fill="#303030" fill-opacity="0.5"/>
<rect x="385.97" y="526.086" width="20.6815" height="21.8231" fill="#303030" fill-opacity="0.5"/>
<rect x="422.163" y="142" width="20.6815" height="21.8231" fill="#303030" fill-opacity="0.5"/>
<rect x="422.163" y="190.01" width="20.6815" height="21.8231" fill="#303030" fill-opacity="0.5"/>
<rect x="422.163" y="238.021" width="20.6815" height="21.8231" fill="#303030" fill-opacity="0.5"/>
<rect x="422.163" y="286.031" width="20.6815" height="21.8231" fill="#303030" fill-opacity="0.5"/>
<rect x="422.163" y="334.043" width="20.6815" height="21.8231" fill="#303030" fill-opacity="0.5"/>
<rect x="422.163" y="382.053" width="20.6815" height="21.8231" fill="#303030" fill-opacity="0.5"/>
<rect x="422.163" y="430.064" width="20.6815" height="21.8231" fill="#303030" fill-opacity="0.5"/>
<rect x="422.163" y="478.074" width="20.6815" height="21.8231" fill="#303030" fill-opacity="0.5"/>
<rect x="422.163" y="526.086" width="20.6815" height="21.8231" fill="#303030" fill-opacity="0.5"/>
<rect x="458.355" y="142" width="20.6815" height="21.8231" fill="#303030" fill-opacity="0.5"/>
<rect x="458.355" y="190.01" width="20.6815" height="21.8231" fill="#303030" fill-opacity="0.5"/>
<rect x="458.355" y="238.021" width="20.6815" height="21.8231" fill="#303030" fill-opacity="0.5"/>
<rect x="458.355" y="286.031" width="20.6815" height="21.8231" fill="#303030" fill-opacity="0.5"/>
<rect x="458.355" y="334.043" width="20.6815" height="21.8231" fill="#303030" fill-opacity="0.5"/>
<rect x="458.355" y="382.053" width="20.6815" height="21.8231" fill="#303030" fill-opacity="0.5"/>
<rect x="458.355" y="430.064" width="20.6815" height="21.8231" fill="#303030" fill-opacity="0.5"/>
<rect x="458.355" y="478.074" width="20.6815" height="21.8231" fill="#303030" fill-opacity="0.5"/>
<rect x="458.355" y="526.086" width="20.6815" height="21.8231" fill="#303030" fill-opacity="0.5"/>
<rect x="494.548" y="142" width="20.6815" height="21.8231" fill="#303030" fill-opacity="0.5"/>
<rect x="494.548" y="190.01" width="20.6815" height="21.8231" fill="#303030" fill-opacity="0.5"/>
<rect x="494.548" y="238.021" width="20.6815" height="21.8231" fill="#303030" fill-opacity="0.5"/>
<rect x="494.548" y="286.031" width="20.6815" height="21.8231" fill="#303030" fill-opacity="0.5"/>
<rect x="494.548" y="334.043" width="20.6815" height="21.8231" fill="#303030" fill-opacity="0.5"/>
<rect x="494.548" y="382.053" width="20.6815" height="21.8231" fill="#303030" fill-opacity="0.5"/>
<rect x="494.548" y="430.064" width="20.6815" height="21.8231" fill="#303030" fill-opacity="0.5"/>
<rect x="494.548" y="478.074" width="20.6815" height="21.8231" fill="#303030" fill-opacity="0.5"/>
<rect x="494.548" y="526.086" width="20.6815" height="21.8231" fill="#303030" fill-opacity="0.5"/>
<rect x="530.741" y="142" width="20.6815" height="21.8231" fill="#303030" fill-opacity="0.5"/>
<rect x="530.741" y="190.01" width="20.6815" height="21.8231" fill="#303030" fill-opacity="0.5"/>
<rect x="530.741" y="238.021" width="20.6815" height="21.8231" fill="#303030" fill-opacity="0.5"/>
<rect x="530.741" y="286.031" width="20.6815" height="21.8231" fill="#303030" fill-opacity="0.5"/>
<rect x="530.741" y="334.043" width="20.6815" height="21.8231" fill="#303030" fill-opacity="0.5"/>
<rect x="530.741" y="382.053" width="20.6815" height="21.8231" fill="#303030" fill-opacity="0.5"/>
<rect x="530.741" y="430.064" width="20.6815" height="21.8231" fill="#303030" fill-opacity="0.5"/>
<rect x="530.741" y="478.074" width="20.6815" height="21.8231" fill="#303030" fill-opacity="0.5"/>
<rect x="530.741" y="526.086" width="20.6815" height="21.8231" fill="#303030" fill-opacity="0.5"/>
<rect x="566.934" y="142" width="20.6815" height="21.8231" fill="#303030" fill-opacity="0.5"/>
<rect x="566.934" y="190.01" width="20.6815" height="21.8231" fill="#303030" fill-opacity="0.5"/>
<rect x="566.934" y="238.021" width="20.6815" height="21.8231" fill="#303030" fill-opacity="0.5"/>
<rect x="566.934" y="286.031" width="20.6815" height="21.8231" fill="#303030" fill-opacity="0.5"/>
<rect x="566.934" y="334.043" width="20.6815" height="21.8231" fill="#303030" fill-opacity="0.5"/>
<rect x="566.934" y="382.053" width="20.6815" height="21.8231" fill="#303030" fill-opacity="0.5"/>
<rect x="566.934" y="430.064" width="20.6815" height="21.8231" fill="#303030" fill-opacity="0.5"/>
<rect x="566.934" y="478.074" width="20.6815" height="21.8231" fill="#303030" fill-opacity="0.5"/>
<rect x="566.934" y="526.086" width="20.6815" height="21.8231" fill="#303030" fill-opacity="0.5"/>
<rect x="603.126" y="142" width="20.6815" height="21.8231" fill="#303030" fill-opacity="0.5"/>
<rect x="603.126" y="190.01" width="20.6815" height="21.8231" fill="#303030" fill-opacity="0.5"/>
<rect x="603.126" y="238.021" width="20.6815" height="21.8231" fill="#303030" fill-opacity="0.5"/>
<rect x="603.126" y="286.031" width="20.6815" height="21.8231" fill="#303030" fill-opacity="0.5"/>
<rect x="603.126" y="334.043" width="20.6815" height="21.8231" fill="#303030" fill-opacity="0.5"/>
<rect x="603.126" y="382.053" width="20.6815" height="21.8231" fill="#303030" fill-opacity="0.5"/>
<rect x="603.126" y="430.064" width="20.6815" height="21.8231" fill="#303030" fill-opacity="0.5"/>
<rect x="603.126" y="478.074" width="20.6815" height="21.8231" fill="#303030" fill-opacity="0.5"/>
<rect x="603.126" y="526.086" width="20.6815" height="21.8231" fill="#303030" fill-opacity="0.5"/>
<rect x="639.318" y="142" width="20.6815" height="21.8231" fill="#303030" fill-opacity="0.5"/>
<rect x="639.318" y="190.01" width="20.6815" height="21.8231" fill="#303030" fill-opacity="0.5"/>
<rect x="639.318" y="238.021" width="20.6815" height="21.8231" fill="#303030" fill-opacity="0.5"/>
<rect x="639.318" y="286.031" width="20.6815" height="21.8231" fill="#303030" fill-opacity="0.5"/>
<rect x="639.318" y="334.043" width="20.6815" height="21.8231" fill="#303030" fill-opacity="0.5"/>
<rect x="639.318" y="382.053" width="20.6815" height="21.8231" fill="#303030" fill-opacity="0.5"/>
<rect x="639.318" y="430.064" width="20.6815" height="21.8231" fill="#303030" fill-opacity="0.5"/>
<rect x="639.318" y="478.074" width="20.6815" height="21.8231" fill="#303030" fill-opacity="0.5"/>
<rect x="639.318" y="526.086" width="20.6815" height="21.8231" fill="#303030" fill-opacity="0.5"/>
<g filter="url(#filter0_d_94_1200)">
<rect x="1339" y="132" width="473" height="545" fill="#5E2898"/>
</g>
<g filter="url(#filter1_i_94_1200)">
<rect x="1339" y="447" width="140" height="230" fill="#101010" fill-opacity="0.5"/>
</g>
<path d="M1179.68 302.527L1166 287.451L1279.36 162.537H1214.86V141H1312.59V248.684H1293.04V177.613L1179.68 302.527Z" fill="url(#paint4_linear_94_1200)"/>
<defs>
<filter id="filter0_d_94_1200" x="1339" y="132" width="487" height="553" filterUnits="userSpaceOnUse" color-interpolation-filters="sRGB">
<feFlood flood-opacity="0" result="BackgroundImageFix"/>
<feColorMatrix in="SourceAlpha" type="matrix" values="0 0 0 0 0 0 0 0 0 0 0 0 0 0 0 0 0 0 127 0" result="hardAlpha"/>
<feOffset dx="10" dy="4"/>
<feGaussianBlur stdDeviation="2"/>
<feComposite in2="hardAlpha" operator="out"/>
<feColorMatrix type="matrix" values="0 0 0 0 0 0 0 0 0 0 0 0 0 0 0 0 0 0 0.15 0"/>
<feBlend mode="normal" in2="BackgroundImageFix" result="effect1_dropShadow_94_1200"/>
<feBlend mode="normal" in="SourceGraphic" in2="effect1_dropShadow_94_1200" result="shape"/>
</filter>
<filter id="filter1_i_94_1200" x="1339" y="436" width="151" height="241" filterUnits="userSpaceOnUse" color-interpolation-filters="sRGB">
<feFlood flood-opacity="0" result="BackgroundImageFix"/>
<feBlend mode="normal" in="SourceGraphic" in2="BackgroundImageFix" result="shape"/>
<feColorMatrix in="SourceAlpha" type="matrix" values="0 0 0 0 0 0 0 0 0 0 0 0 0 0 0 0 0 0 127 0" result="hardAlpha"/>
<feOffset dx="11" dy="-11"/>
<feGaussianBlur stdDeviation="16"/>
<feComposite in2="hardAlpha" operator="arithmetic" k2="-1" k3="1"/>
<feColorMatrix type="matrix" values="0 0 0 0 0 0 0 0 0 0 0 0 0 0 0 0 0 0 0.25 0"/>
<feBlend mode="normal" in2="shape" result="effect1_innerShadow_94_1200"/>
</filter>
<linearGradient id="paint0_linear_94_1200" x1="-139.5" y1="-33" x2="255" y2="211" gradientUnits="userSpaceOnUse">
<stop stop-color="#D9D9D9" stop-opacity="0"/>
<stop offset="0.229296" stop-color="#5E2898" stop-opacity="0.23"/>
<stop offset="0.614583" stop-color="#5E2898"/>
<stop offset="1" stop-color="#DE32F4"/>
</linearGradient>
<linearGradient id="paint1_linear_94_1200" x1="-192.5" y1="7.00001" x2="202" y2="251" gradientUnits="userSpaceOnUse">
<stop stop-color="#D9D9D9" stop-opacity="0"/>
<stop offset="0.229296" stop-color="#5E2898" stop-opacity="0.23"/>
<stop offset="0.614583" stop-color="#5E2898"/>
<stop offset="1" stop-color="#DE32F4"/>
</linearGradient>
<linearGradient id="paint2_linear_94_1200" x1="-260.5" y1="43" x2="134" y2="287" gradientUnits="userSpaceOnUse">
<stop stop-color="#D9D9D9" stop-opacity="0"/>
<stop offset="0.229296" stop-color="#5E2898" stop-opacity="0.23"/>
<stop offset="0.614583" stop-color="#5E2898"/>
<stop offset="1" stop-color="#DE32F4"/>
</linearGradient>
<linearGradient id="paint3_linear_94_1200" x1="-332.5" y1="71" x2="62" y2="315" gradientUnits="userSpaceOnUse">
<stop stop-color="#D9D9D9" stop-opacity="0"/>
<stop offset="0.229296" stop-color="#5E2898" stop-opacity="0.23"/>
<stop offset="0.614583" stop-color="#5E2898"/>
<stop offset="1" stop-color="#DE32F4"/>
</linearGradient>
<linearGradient id="paint4_linear_94_1200" x1="1239.29" y1="141" x2="1239.29" y2="302.527" gradientUnits="userSpaceOnUse">
<stop stop-color="#5E2898"/>
<stop offset="1" stop-color="#DE32F4"/>
</linearGradient>
</defs>
</svg>
