<svg width="430" height="932" viewBox="0 0 430 932" fill="none" xmlns="http://www.w3.org/2000/svg">
<g clip-path="url(#clip0_60_1227)">
<rect width="430" height="932" fill="#232323"/>
<g filter="url(#filter0_d_60_1227)">
<path d="M127 258.333C426.151 258.333 604.875 258.333 883.865 258.333C883.865 258.333 963 255.334 963 258.332V488.182V766H127V258.333Z" fill="#2B2B2B"/>
</g>
<g filter="url(#filter1_d_60_1227)">
<rect x="-62" y="674" width="294" height="258" fill="#5E2898"/>
</g>
<g filter="url(#filter2_i_60_1227)">
<rect x="232" y="747" width="294" height="73" transform="rotate(180 232 747)" fill="#101010" fill-opacity="0.5"/>
</g>
<path d="M328.693 855.17L323 848.994L370.173 797.823H343.333V789H384V833.113H375.867V803.998L328.693 855.17Z" fill="url(#paint0_linear_60_1227)"/>
<rect x="258" y="43.0918" width="20.6815" height="21.8231" fill="#303030" fill-opacity="0.5"/>
<rect x="258" y="91.1025" width="20.6815" height="21.8231" fill="#303030" fill-opacity="0.5"/>
<rect x="258" y="139.113" width="20.6815" height="21.8231" fill="#303030" fill-opacity="0.5"/>
<rect x="258" y="187.124" width="20.6815" height="21.8231" fill="#303030" fill-opacity="0.5"/>
<rect x="258" y="235.135" width="20.6815" height="21.8231" fill="#303030" fill-opacity="0.5"/>
<rect x="258" y="283.146" width="20.6815" height="21.8231" fill="#303030" fill-opacity="0.5"/>
<rect x="258" y="331.156" width="20.6815" height="21.8231" fill="#303030" fill-opacity="0.5"/>
<rect x="258" y="379.167" width="20.6815" height="21.8231" fill="#303030" fill-opacity="0.5"/>
<rect x="258" y="427.178" width="20.6815" height="21.8231" fill="#303030" fill-opacity="0.5"/>
<rect x="294.192" y="42" width="20.6815" height="21.8231" fill="#303030" fill-opacity="0.5"/>
<rect x="294.192" y="90.0107" width="20.6815" height="21.8231" fill="#303030" fill-opacity="0.5"/>
<rect x="294.192" y="138.021" width="20.6815" height="21.8231" fill="#303030" fill-opacity="0.5"/>
<rect x="294.192" y="186.032" width="20.6815" height="21.8231" fill="#303030" fill-opacity="0.5"/>
<rect x="294.192" y="234.043" width="20.6815" height="21.8231" fill="#303030" fill-opacity="0.5"/>
<rect x="294.192" y="282.054" width="20.6815" height="21.8231" fill="#303030" fill-opacity="0.5"/>
<rect x="294.192" y="330.064" width="20.6815" height="21.8231" fill="#303030" fill-opacity="0.5"/>
<rect x="294.192" y="378.075" width="20.6815" height="21.8231" fill="#303030" fill-opacity="0.5"/>
<rect x="294.192" y="426.086" width="20.6815" height="21.8231" fill="#303030" fill-opacity="0.5"/>
<rect x="330.385" y="42" width="20.6815" height="21.8231" fill="#303030" fill-opacity="0.5"/>
<rect x="330.385" y="90.0107" width="20.6815" height="21.8231" fill="#303030" fill-opacity="0.5"/>
<rect x="330.385" y="138.021" width="20.6815" height="21.8231" fill="#303030" fill-opacity="0.5"/>
<rect x="330.385" y="186.032" width="20.6815" height="21.8231" fill="#303030" fill-opacity="0.5"/>
<rect x="330.385" y="234.043" width="20.6815" height="21.8231" fill="#303030" fill-opacity="0.5"/>
<rect x="330.385" y="282.054" width="20.6815" height="21.8231" fill="#303030" fill-opacity="0.5"/>
<rect x="330.385" y="330.064" width="20.6815" height="21.8231" fill="#303030" fill-opacity="0.5"/>
<rect x="330.385" y="378.075" width="20.6815" height="21.8231" fill="#303030" fill-opacity="0.5"/>
<rect x="330.385" y="426.086" width="20.6815" height="21.8231" fill="#303030" fill-opacity="0.5"/>
<rect x="366.578" y="42" width="20.6815" height="21.8231" fill="#303030" fill-opacity="0.5"/>
<rect x="366.578" y="90.0107" width="20.6815" height="21.8231" fill="#303030" fill-opacity="0.5"/>
<rect x="366.578" y="138.021" width="20.6815" height="21.8231" fill="#303030" fill-opacity="0.5"/>
<rect x="366.578" y="186.032" width="20.6815" height="21.8231" fill="#303030" fill-opacity="0.5"/>
<rect x="366.578" y="234.043" width="20.6815" height="21.8231" fill="#303030" fill-opacity="0.5"/>
<rect x="366.578" y="282.054" width="20.6815" height="21.8231" fill="#303030" fill-opacity="0.5"/>
<rect x="366.578" y="330.064" width="20.6815" height="21.8231" fill="#303030" fill-opacity="0.5"/>
<rect x="366.578" y="378.075" width="20.6815" height="21.8231" fill="#303030" fill-opacity="0.5"/>
<rect x="366.578" y="426.086" width="20.6815" height="21.8231" fill="#303030" fill-opacity="0.5"/>
<rect x="402.771" y="42" width="20.6815" height="21.8231" fill="#303030" fill-opacity="0.5"/>
<rect x="402.771" y="90.0107" width="20.6815" height="21.8231" fill="#303030" fill-opacity="0.5"/>
<rect x="402.771" y="138.021" width="20.6815" height="21.8231" fill="#303030" fill-opacity="0.5"/>
<rect x="402.771" y="186.032" width="20.6815" height="21.8231" fill="#303030" fill-opacity="0.5"/>
<rect x="402.771" y="234.043" width="20.6815" height="21.8231" fill="#303030" fill-opacity="0.5"/>
<rect x="402.771" y="282.054" width="20.6815" height="21.8231" fill="#303030" fill-opacity="0.5"/>
<rect x="402.771" y="330.064" width="20.6815" height="21.8231" fill="#303030" fill-opacity="0.5"/>
<rect x="402.771" y="378.075" width="20.6815" height="21.8231" fill="#303030" fill-opacity="0.5"/>
<rect x="402.771" y="426.086" width="20.6815" height="21.8231" fill="#303030" fill-opacity="0.5"/>
<path d="M4.5 120.5C-28.5 100 -343 -98 -343 -98H-268.5C-268.5 -98 4.5 70 30.5 85.5C56.5 101 37.5 141 4.5 120.5Z" fill="url(#paint1_linear_60_1227)" fill-opacity="0.3"/>
<path d="M92.5 97.5C59.5 77 -255 -121 -255 -121H-180.5C-180.5 -121 92.5 47 118.5 62.5C144.5 78 125.5 118 92.5 97.5Z" fill="url(#paint2_linear_60_1227)" fill-opacity="0.3"/>
<path d="M176.5 59.5C143.5 39 -171 -159 -171 -159H-96.5C-96.5 -159 176.5 9 202.5 24.5C228.5 40 209.5 80 176.5 59.5Z" fill="url(#paint3_linear_60_1227)" fill-opacity="0.3"/>
</g>
<defs>
<filter id="filter0_d_60_1227" x="114" y="248" width="862" height="535" filterUnits="userSpaceOnUse" color-interpolation-filters="sRGB">
<feFlood flood-opacity="0" result="BackgroundImageFix"/>
<feColorMatrix in="SourceAlpha" type="matrix" values="0 0 0 0 0 0 0 0 0 0 0 0 0 0 0 0 0 0 127 0" result="hardAlpha"/>
<feOffset dy="4"/>
<feGaussianBlur stdDeviation="6.5"/>
<feComposite in2="hardAlpha" operator="out"/>
<feColorMatrix type="matrix" values="0 0 0 0 0 0 0 0 0 0 0 0 0 0 0 0 0 0 0.25 0"/>
<feBlend mode="normal" in2="BackgroundImageFix" result="effect1_dropShadow_60_1227"/>
<feBlend mode="normal" in="SourceGraphic" in2="effect1_dropShadow_60_1227" result="shape"/>
</filter>
<filter id="filter1_d_60_1227" x="-62" y="674" width="308" height="266" filterUnits="userSpaceOnUse" color-interpolation-filters="sRGB">
<feFlood flood-opacity="0" result="BackgroundImageFix"/>
<feColorMatrix in="SourceAlpha" type="matrix" values="0 0 0 0 0 0 0 0 0 0 0 0 0 0 0 0 0 0 127 0" result="hardAlpha"/>
<feOffset dx="10" dy="4"/>
<feGaussianBlur stdDeviation="2"/>
<feComposite in2="hardAlpha" operator="out"/>
<feColorMatrix type="matrix" values="0 0 0 0 0 0 0 0 0 0 0 0 0 0 0 0 0 0 0.15 0"/>
<feBlend mode="normal" in2="BackgroundImageFix" result="effect1_dropShadow_60_1227"/>
<feBlend mode="normal" in="SourceGraphic" in2="effect1_dropShadow_60_1227" result="shape"/>
</filter>
<filter id="filter2_i_60_1227" x="-62" y="663" width="305" height="84" filterUnits="userSpaceOnUse" color-interpolation-filters="sRGB">
<feFlood flood-opacity="0" result="BackgroundImageFix"/>
<feBlend mode="normal" in="SourceGraphic" in2="BackgroundImageFix" result="shape"/>
<feColorMatrix in="SourceAlpha" type="matrix" values="0 0 0 0 0 0 0 0 0 0 0 0 0 0 0 0 0 0 127 0" result="hardAlpha"/>
<feOffset dx="11" dy="-11"/>
<feGaussianBlur stdDeviation="16"/>
<feComposite in2="hardAlpha" operator="arithmetic" k2="-1" k3="1"/>
<feColorMatrix type="matrix" values="0 0 0 0 0 0 0 0 0 0 0 0 0 0 0 0 0 0 0.25 0"/>
<feBlend mode="normal" in2="shape" result="effect1_innerShadow_60_1227"/>
</filter>
<linearGradient id="paint0_linear_60_1227" x1="353.5" y1="789" x2="353.5" y2="855.17" gradientUnits="userSpaceOnUse">
<stop stop-color="#5E2898"/>
<stop offset="1" stop-color="#DE32F4"/>
</linearGradient>
<linearGradient id="paint1_linear_60_1227" x1="-365.5" y1="-131" x2="29" y2="113" gradientUnits="userSpaceOnUse">
<stop stop-color="#D9D9D9" stop-opacity="0"/>
<stop offset="0.229296" stop-color="#5E2898" stop-opacity="0.23"/>
<stop offset="0.614583" stop-color="#5E2898"/>
<stop offset="1" stop-color="#DE32F4"/>
</linearGradient>
<linearGradient id="paint2_linear_60_1227" x1="-277.5" y1="-154" x2="117" y2="90" gradientUnits="userSpaceOnUse">
<stop stop-color="#D9D9D9" stop-opacity="0"/>
<stop offset="0.229296" stop-color="#5E2898" stop-opacity="0.23"/>
<stop offset="0.614583" stop-color="#5E2898"/>
<stop offset="1" stop-color="#DE32F4"/>
</linearGradient>
<linearGradient id="paint3_linear_60_1227" x1="-193.5" y1="-192" x2="201" y2="52" gradientUnits="userSpaceOnUse">
<stop stop-color="#D9D9D9" stop-opacity="0"/>
<stop offset="0.229296" stop-color="#5E2898" stop-opacity="0.23"/>
<stop offset="0.614583" stop-color="#5E2898"/>
<stop offset="1" stop-color="#DE32F4"/>
</linearGradient>
<clipPath id="clip0_60_1227">
<rect width="430" height="932" fill="white"/>
</clipPath>
</defs>
</svg>
