<svg width="93" height="93" viewBox="0 0 93 93" fill="none" xmlns="http://www.w3.org/2000/svg">
<path d="M33.9063 92.9959C30.9354 92.9959 28.2714 92.1505 25.9141 90.4596C23.5568 88.7688 21.7323 86.4439 20.4406 83.4849C19.4073 84.9644 18.0995 86.1093 16.5172 86.9194C14.9349 87.7296 13.3042 88.1347 11.625 88.1347C8.33125 88.1347 5.57031 86.9018 3.34219 84.436C1.11406 81.9702 0 78.976 0 75.4535C0 72.4241 0.904167 69.6941 2.7125 67.2635C4.52083 64.8329 6.81354 63.4415 9.59063 63.0893C8.68646 61.6802 7.99219 60.1831 7.50781 58.598C7.02344 57.0128 6.78125 55.3396 6.78125 53.5783C6.78125 50.7603 7.44323 48.1183 8.76719 45.6525C10.0911 43.1867 11.9479 41.1789 14.3375 39.6289C14.6604 40.8971 15.0964 42.2532 15.6453 43.6975C16.1943 45.1418 16.824 46.3923 17.5344 47.449C16.6302 48.224 15.9198 49.1575 15.4031 50.2495C14.8865 51.3415 14.6281 52.4863 14.6281 53.684C14.6281 57.6293 16.1135 60.0598 19.0844 60.9757C22.0552 61.8916 24.8646 62.6313 27.5125 63.1949L29.3531 66.5766C28.6427 68.831 28.0292 70.7508 27.5125 72.336C26.9958 73.9212 26.7375 75.3478 26.7375 76.6159C26.7375 78.7295 27.4318 80.5788 28.8203 82.164C30.2089 83.7491 31.9042 84.5417 33.9063 84.5417C36.3604 84.5417 38.3948 83.344 40.0094 80.9487C41.624 78.5533 42.9479 75.7353 43.9813 72.4945C45.0146 69.2537 45.8057 65.9778 46.3547 62.6665C46.9036 59.3553 47.3396 56.8191 47.6625 55.0578L55.2188 57.277C54.6375 60.4473 53.9271 64.0756 53.0875 68.1618C52.2479 72.2479 51.0693 76.1404 49.5516 79.8391C48.0339 83.5378 46.0318 86.6553 43.5453 89.1915C41.0589 91.7278 37.8458 92.9959 33.9063 92.9959ZM11.625 79.6806C12.7229 79.6806 13.6432 79.2755 14.3859 78.4653C15.1286 77.6551 15.5 76.6512 15.5 75.4535C15.5 74.2558 15.1286 73.2519 14.3859 72.4417C13.6432 71.6315 12.7229 71.2264 11.625 71.2264C10.5271 71.2264 9.60677 71.6315 8.86406 72.4417C8.12135 73.2519 7.75 74.2558 7.75 75.4535C7.75 76.6512 8.12135 77.6551 8.86406 78.4653C9.60677 79.2755 10.5271 79.6806 11.625 79.6806ZM39.1375 62.9836C36.1667 60.0951 33.4703 57.4003 31.0484 54.8993C28.6266 52.3982 26.5438 49.9677 24.8 47.6075C23.0563 45.2474 21.7161 42.8873 20.7797 40.5272C19.8432 38.1671 19.375 35.7189 19.375 33.1826C19.375 28.6033 20.812 24.7461 23.6859 21.611C26.5599 18.4759 30.0958 16.9083 34.2938 16.9083C34.5521 16.9083 34.7781 16.926 34.9719 16.9612C35.1656 16.9964 35.3917 17.014 35.65 17.014C35.3917 16.3095 35.1979 15.605 35.0688 14.9005C34.9396 14.196 34.875 13.4562 34.875 12.6813C34.875 9.15869 36.0052 6.1645 38.2656 3.6987C40.526 1.2329 43.2708 0 46.5 0C49.7292 0 52.474 1.2329 54.7344 3.6987C56.9948 6.1645 58.125 9.15869 58.125 12.6813C58.125 13.4562 58.0604 14.1783 57.9313 14.8476C57.8021 15.5169 57.6083 16.2038 57.35 16.9083H58.7063C62.5813 16.9083 65.875 18.2645 68.5875 20.9769C71.3 23.6893 72.9146 27.0533 73.4313 31.0691C72.2688 30.8577 70.9609 30.752 69.5078 30.752C68.0547 30.752 66.7146 30.8225 65.4875 30.9634C65.0354 29.343 64.212 28.0044 63.0172 26.9477C61.8224 25.8909 60.3854 25.3625 58.7063 25.3625C56.4458 25.3625 54.6859 26.0846 53.4266 27.5289C52.1672 28.9731 50.4396 31.0691 48.2438 33.8167H44.6594C42.399 30.9282 40.6391 28.797 39.3797 27.4232C38.1203 26.0494 36.425 25.3625 34.2938 25.3625C32.2271 25.3625 30.5156 26.1023 29.1594 27.5817C27.8031 29.0612 27.125 30.9282 27.125 33.1826C27.125 34.803 27.5448 36.4762 28.3844 38.2023C29.224 39.9283 30.4026 41.7601 31.9203 43.6975C33.438 45.6349 35.2787 47.6956 37.4422 49.8796C39.6057 52.0636 42.0115 54.4237 44.6594 56.96L39.1375 62.9836ZM46.5 16.9083C47.5979 16.9083 48.5182 16.5032 49.2609 15.6931C50.0036 14.8829 50.375 13.8789 50.375 12.6813C50.375 11.4836 50.0036 10.4796 49.2609 9.66946C48.5182 8.85927 47.5979 8.45417 46.5 8.45417C45.4021 8.45417 44.4818 8.85927 43.7391 9.66946C42.9964 10.4796 42.625 11.4836 42.625 12.6813C42.625 13.8789 42.9964 14.8829 43.7391 15.6931C44.4818 16.5032 45.4021 16.9083 46.5 16.9083ZM58.9969 92.9959C57.576 92.9959 56.1714 92.7845 54.7828 92.3618C53.3943 91.9391 52.0542 91.2698 50.7625 90.3539C51.4729 89.3676 52.1833 88.2052 52.8938 86.8666C53.6042 85.528 54.25 84.2951 54.8313 83.1679C55.5417 83.6611 56.2521 84.0133 56.9625 84.2247C57.6729 84.436 58.3833 84.5417 59.0938 84.5417C61.1604 84.5417 62.888 83.7491 64.2766 82.164C65.6651 80.5788 66.3594 78.6942 66.3594 76.5102C66.3594 75.1717 66.101 73.7274 65.5844 72.1775C65.0677 70.6276 64.4542 68.7254 63.7438 66.4709L65.5844 63.0893C68.2969 62.5256 71.1224 61.7859 74.0609 60.87C76.9995 59.9542 78.4688 57.5236 78.4688 53.5783C78.4688 50.7603 77.5162 48.7172 75.6109 47.449C73.7057 46.1809 71.6229 45.5468 69.3625 45.5468C66.65 45.5468 63.4854 46.1105 59.8688 47.2377C56.2521 48.3649 52.0219 49.8092 47.1781 51.5704L45.1438 43.3276C50.1813 41.5663 54.6698 40.0869 58.6094 38.8892C62.549 37.6915 66.1656 37.0927 69.4594 37.0927C73.9156 37.0927 77.8229 38.5369 81.1813 41.4254C84.5396 44.3139 86.2188 48.3649 86.2188 53.5783C86.2188 55.3396 85.9766 57.0128 85.4922 58.598C85.0078 60.1831 84.3135 61.6802 83.4094 63.0893C86.1865 63.4415 88.4792 64.8329 90.2875 67.2635C92.0958 69.6941 93 72.4241 93 75.4535C93 78.976 91.8859 81.9702 89.6578 84.436C87.4297 86.9018 84.6688 88.1347 81.375 88.1347C79.6958 88.1347 78.0651 87.7296 76.4828 86.9194C74.9005 86.1093 73.5927 84.9644 72.5594 83.4849C71.2677 86.4439 69.4432 88.7688 67.0859 90.4596C64.7286 92.1505 62.0323 92.9959 58.9969 92.9959ZM81.4719 79.6806C82.5698 79.6806 83.474 79.2755 84.1844 78.4653C84.8948 77.6551 85.25 76.6512 85.25 75.4535C85.25 74.2558 84.8786 73.2343 84.1359 72.3888C83.3932 71.5434 82.4729 71.1207 81.375 71.1207C80.2771 71.1207 79.3568 71.5258 78.6141 72.336C77.8714 73.1462 77.5 74.1501 77.5 75.3478C77.5 76.5455 77.8875 77.567 78.6625 78.4124C79.4375 79.2579 80.374 79.6806 81.4719 79.6806Z" fill="#DE32F4"/>
</svg>
