<svg width="52" height="48" viewBox="0 0 52 48" fill="none" xmlns="http://www.w3.org/2000/svg">
<path d="M26 48L22.23 44.5995C17.8533 40.6322 14.235 37.2098 11.375 34.3324C8.515 31.455 6.24 28.8719 4.55 26.5831C2.86 24.2943 1.67917 22.1907 1.0075 20.2725C0.335833 18.3542 0 16.3924 0 14.3869C0 10.2888 1.365 6.86649 4.095 4.11989C6.825 1.3733 10.2267 0 14.3 0C16.5533 0 18.6983 0.479564 20.735 1.43869C22.7717 2.39782 24.5267 3.74932 26 5.49319C27.4733 3.74932 29.2283 2.39782 31.265 1.43869C33.3017 0.479564 35.4467 0 37.7 0C41.7733 0 45.175 1.3733 47.905 4.11989C50.635 6.86649 52 10.2888 52 14.3869C52 16.3924 51.6642 18.3542 50.9925 20.2725C50.3208 22.1907 49.14 24.2943 47.45 26.5831C45.76 28.8719 43.485 31.455 40.625 34.3324C37.765 37.2098 34.1467 40.6322 29.77 44.5995L26 48ZM26 40.9373C30.16 37.188 33.5833 33.9728 36.27 31.2916C38.9567 28.6104 41.08 26.2779 42.64 24.2943C44.2 22.3106 45.2833 20.545 45.89 18.9973C46.4967 17.4496 46.8 15.9128 46.8 14.3869C46.8 11.7711 45.9333 9.59128 44.2 7.84741C42.4667 6.10354 40.3 5.23161 37.7 5.23161C35.6633 5.23161 33.7783 5.80926 32.045 6.96458C30.3117 8.11989 29.12 9.59128 28.47 11.3787H23.53C22.88 9.59128 21.6883 8.11989 19.955 6.96458C18.2217 5.80926 16.3367 5.23161 14.3 5.23161C11.7 5.23161 9.53333 6.10354 7.8 7.84741C6.06667 9.59128 5.2 11.7711 5.2 14.3869C5.2 15.9128 5.50333 17.4496 6.11 18.9973C6.71667 20.545 7.8 22.3106 9.36 24.2943C10.92 26.2779 13.0433 28.6104 15.73 31.2916C18.4167 33.9728 21.84 37.188 26 40.9373Z" fill="#DE32F4"/>
</svg>
