<svg width="85" height="97" viewBox="0 0 85 97" fill="none" xmlns="http://www.w3.org/2000/svg">
<path d="M31.875 18.0144C29.5375 18.0144 27.5365 17.1325 25.8719 15.3686C24.2073 13.6047 23.375 11.4842 23.375 9.00722C23.375 6.53024 24.2073 4.40979 25.8719 2.64587C27.5365 0.881957 29.5375 0 31.875 0C34.2125 0 36.2135 0.881957 37.8781 2.64587C39.5427 4.40979 40.375 6.53024 40.375 9.00722C40.375 11.4842 39.5427 13.6047 37.8781 15.3686C36.2135 17.1325 34.2125 18.0144 31.875 18.0144ZM4.25 96.8276L15.9375 33.3267L8.5 36.7044V51.7915H0V30.6246L22.3125 20.9418C24.225 20.1161 26.1729 20.0223 28.1562 20.6603C30.1396 21.2983 31.6625 22.5931 32.725 24.5447L36.7625 31.7505C38.675 35.0531 41.2427 37.7177 44.4656 39.7444C47.6885 41.771 51.2833 42.7843 55.25 42.7843V51.7915C50.575 51.7915 46.2365 50.7407 42.2344 48.639C38.2323 46.5373 34.85 43.685 32.0875 40.0821L29.5375 53.593L38.25 62.8254V96.8276H29.75V69.806L20.6125 60.7988L13.175 96.8276H4.25ZM62.6875 96.8276V33.7771H46.75V2.25181H85V33.7771H69.0625V96.8276H62.6875ZM68.1062 29.1609L78.625 18.0144L68.1062 6.86801L63.5375 11.7094L66.3 14.6367H53.125V21.3922H66.3L63.5375 24.3195L68.1062 29.1609Z" fill="#DE32F4"/>
</svg>
