<svg width="73" height="71" viewBox="0 0 73 71" fill="none" xmlns="http://www.w3.org/2000/svg">
<path d="M38.087 71C32.1623 71 26.7138 69.615 21.7413 66.8449C16.7688 64.0748 12.6957 60.4038 9.52174 55.8318V61.3182H3.17391V45.1818H19.0435V51.6364H14.4413C16.9804 55.5091 20.313 58.6288 24.4391 60.9955C28.5652 63.3621 33.1145 64.5455 38.087 64.5455C42.0543 64.5455 45.7705 63.779 49.2353 62.246C52.7002 60.7131 55.7154 58.6422 58.281 56.0335C60.8466 53.4248 62.8832 50.3589 64.3908 46.8358C65.8984 43.3127 66.6522 39.5341 66.6522 35.5H73C73 40.3947 72.0875 44.9936 70.2625 49.2966C68.4375 53.5996 65.938 57.3648 62.7641 60.592C59.5902 63.8193 55.8873 66.3608 51.6554 68.2165C47.4235 70.0722 42.9007 71 38.087 71ZM23.3283 10.7307L20.6304 4.76023C23.3283 3.20038 26.0658 2.01705 28.8429 1.21023C31.6201 0.403409 34.7014 0 38.087 0C44.0116 0 49.4601 1.38504 54.4326 4.15511C59.4051 6.92519 63.4783 10.5962 66.6522 15.1682V9.68182H73V25.8182H57.1304V19.3636H61.7326C59.1935 15.4909 55.8609 12.3712 51.7348 10.0045C47.6087 7.63788 43.0594 6.45455 38.087 6.45455C35.2833 6.45455 32.6781 6.84451 30.2712 7.62443C27.8643 8.40436 25.55 9.43977 23.3283 10.7307ZM12.6957 35.5L8.72826 26.625L0 22.5909L8.72826 18.5568L12.6957 9.68182L16.663 18.5568L25.3913 22.5909L16.663 26.625L12.6957 35.5Z" fill="#DE32F4"/>
</svg>
