<svg width="1080" height="1080" viewBox="0 0 1080 1080" fill="none" xmlns="http://www.w3.org/2000/svg">
<path d="M473.979 768.835C496.426 779.662 519.199 787 542.996 791.06C573.889 796.333 605.802 795.922 636.595 789.85C651.206 786.972 667.76 782.078 681.708 776.516C731.647 756.629 774.979 720.795 803.781 675.545C831.957 631.311 846.074 579.063 843.897 526.855C841.737 475.48 824.856 427.083 794.683 385.89C788.815 377.885 785.284 373.581 777.188 364.73C769.6 356.398 766.41 353.207 759.972 347.388C718.771 310.07 667.197 287.435 611.674 282.291C572.75 278.662 533.374 284 496.783 297.853C491.532 299.839 481.014 304.234 480.59 304.621C480.48 304.722 481.955 304.561 483.897 304.244C503.686 301.075 525.645 300.538 546.036 302.758C615.641 310.36 677.887 348.248 716.926 406.785C734.567 433.242 746.6 462.994 752.449 494.672C754.646 506.611 755.932 519.179 756.243 532.199C756.427 539.09 755.756 555.213 755.037 561.708C749.758 609.129 732.076 651.232 702.214 687.302C681.026 712.894 653.556 734.39 623.465 748.882C577.281 771.136 524.66 777.593 474.137 767.197C471.278 766.622 468.875 766.139 468.805 766.135C468.381 766.116 469.455 766.661 473.979 768.835Z" fill="white"/>
<path d="M662.889 827.085C635.212 840.263 607.101 849.128 577.694 853.932C539.518 860.174 500.029 859.38 461.876 851.602C443.772 847.916 423.246 841.721 405.939 834.723C343.973 809.704 290.04 765.038 254 708.867C218.745 653.956 200.812 589.269 203.04 524.775C205.254 461.311 225.709 401.659 262.674 351.026C269.863 341.187 274.194 335.9 284.132 325.035C293.445 314.807 297.363 310.892 305.278 303.759C355.921 258.014 419.532 230.504 488.183 224.643C536.309 220.505 585.077 227.452 630.473 244.897C636.987 247.398 650.041 252.922 650.568 253.405C650.706 253.53 648.879 253.318 646.474 252.909C621.961 248.817 594.787 247.957 569.578 250.519C483.524 259.292 406.847 305.554 359.067 377.539C337.476 410.074 322.853 446.732 315.899 485.822C313.287 500.555 311.809 516.075 311.539 532.16C311.374 540.674 312.347 560.602 313.295 568.635C320.249 627.279 342.503 679.463 379.771 724.301C406.215 756.113 440.396 782.92 477.755 801.096C535.096 829.008 600.261 837.455 662.678 825.06C666.21 824.375 669.179 823.799 669.266 823.796C669.791 823.775 668.467 824.439 662.889 827.085Z" fill="white"/>
<path d="M416.734 665.017C416.735 650.77 416.278 427.575 416.734 418.078C417.191 408.58 441.528 406.206 441.528 418.078V665.017C441.528 679.263 416.734 679.263 416.734 665.017Z" fill="white"/>
<path d="M617.838 672.14C613.907 667.722 477.34 498.808 466.321 486.936C455.302 475.064 474.586 458.443 488.36 475.064C502.134 491.685 617.838 627.026 617.838 627.026V418.078C617.838 406.206 642.631 406.206 642.631 418.078C642.631 429.95 646.537 666.545 642.631 672.14C638.725 677.735 621.768 676.558 617.838 672.14Z" fill="white"/>
</svg>
