<svg width="100" height="101" viewBox="0 0 100 101" fill="none" xmlns="http://www.w3.org/2000/svg">
<path d="M17.958 39.8846L27.6853 44C28.8492 41.6721 30.0547 39.4273 31.3018 37.2657C32.5489 35.1041 33.9207 32.9425 35.4172 30.7809L28.4335 29.4091L17.958 39.8846ZM35.6666 50.2354L49.8834 64.3275C53.3752 62.9972 57.1165 60.9603 61.1072 58.2167C65.0978 55.4732 68.8391 52.3554 72.3309 48.8636C78.1507 43.0439 82.7025 36.5798 85.9865 29.4714C89.2705 22.3631 90.7046 15.8159 90.289 9.82985C84.3029 9.41415 77.735 10.8483 70.585 14.1323C63.4351 17.4163 56.9502 21.9681 51.1305 27.7879C47.6386 31.2797 44.5209 35.021 41.7773 39.0116C39.0338 43.0023 36.9969 46.7436 35.6666 50.2354ZM57.8647 42.1293C55.9525 40.2171 54.9965 37.8685 54.9965 35.0833C54.9965 32.2982 55.9525 29.9495 57.8647 28.0373C59.7769 26.1251 62.1464 25.169 64.9731 25.169C67.7999 25.169 70.1693 26.1251 72.0815 28.0373C73.9937 29.9495 74.9498 32.2982 74.9498 35.0833C74.9498 37.8685 73.9937 40.2171 72.0815 42.1293C70.1693 44.0415 67.7999 44.9976 64.9731 44.9976C62.1464 44.9976 59.7769 44.0415 57.8647 42.1293ZM60.2342 82.1608L70.7097 71.6853L69.3379 64.7016C67.1763 66.1981 65.0147 67.5491 62.8531 68.7546C60.6915 69.9601 58.4467 71.1449 56.1188 72.3088L60.2342 82.1608ZM99.268 0.726125C100.848 10.7859 99.8707 20.5756 96.3373 30.095C92.8039 39.6144 86.714 48.6973 78.0675 57.3438L80.5617 69.6899C80.8942 71.3527 80.8111 72.9739 80.3123 74.5536C79.8134 76.1332 78.9821 77.505 77.8181 78.6689L56.8671 99.62L46.3916 75.0524L25.0664 53.7272L0.498834 43.2517L21.3252 22.3007C22.4891 21.1368 23.8817 20.3054 25.5029 19.8065C27.1241 19.3077 28.7661 19.2246 30.4289 19.5571L42.775 22.0513C51.4215 13.4048 60.4836 7.29411 69.9615 3.71913C79.4393 0.144152 89.2081 -0.853516 99.268 0.726125ZM9.35314 69.5652C12.263 66.6553 15.8172 65.1796 20.0157 65.1381C24.2142 65.0965 27.7684 66.5306 30.6783 69.4405C33.5882 72.3504 35.0223 75.9046 34.9807 80.1031C34.9392 84.3016 33.4634 87.8558 30.5536 90.7657C28.4751 92.8441 25.0041 94.6316 20.1404 96.1281C15.2768 97.6246 8.56332 98.9549 0 100.119C1.16395 91.5555 2.49417 84.842 3.99067 79.9784C5.48717 75.1147 7.27466 71.6437 9.35314 69.5652ZM16.4615 76.5489C15.6301 77.3803 14.7987 78.8976 13.9674 81.1008C13.136 83.3039 12.554 85.5279 12.2214 87.7727C14.4662 87.4401 16.6902 86.8789 18.8933 86.0891C21.0965 85.2993 22.6138 84.4887 23.4452 83.6573C24.4429 82.6596 24.9833 81.4541 25.0664 80.0407C25.1495 78.6274 24.6923 77.4219 23.6946 76.4242C22.6969 75.4265 21.4914 74.9485 20.0781 74.99C18.6647 75.0316 17.4592 75.5512 16.4615 76.5489Z" fill="#66359B"/>
</svg>
